<?xml version="1.0" encoding="utf-8"?>
<!-- Generator: Adobe Illustrator 24.0.2, SVG Export Plug-In . SVG Version: 6.00 Build 0)  -->
<svg version="1.1" id="Layer_1" xmlns="http://www.w3.org/2000/svg" xmlns:xlink="http://www.w3.org/1999/xlink" x="0px" y="0px"
	 viewBox="0 0 1827 471" enable-background="new 0 0 1827 471" xml:space="preserve">
<g>
	<path fill="#8DB23F" d="M693.4,230.8c0.2,0.3,0.2,0.6,0.2,0.9c0.7,1.7,0.8,3.5,1.8,5.1c2.7,8,5.4,15.9,8,23.9c0.3,0,0.6-0.1,1-0.1
		c0-3.4,0-6.7,0-10.1c0-41.4-0.1-82.8-0.1-124.3c0-6.7,0-6.7,6.8-6.7c13.5,0.1,26.9,0.2,40.4,0.2c0.6,0.9,0.6,1.8-0.2,2.5
		c-2.1,1.3-4.5,1.1-6.8,1.1c-9.5,0.1-19-0.1-28.5,0.1c-6.4,0.1-7,0.9-7,7.3c0.1,33,0,65.9,0.1,98.9c0,8.7-1.6,17.7,2.7,25.8
		c2-2.8,2.2-3,0.3-5.7c-1.8-2.6-2.2-5.5-2.2-8.5c0-35.5,0-70.9,0-106.4c0-7.4,1.1-8.3,8.4-8.5c9.6-0.3,19.3,0.7,28.9-0.7
		c3.5-0.5,3.4,2.3,3.7,4.6c0,87.8,0,175.5,0,263.2c0,2.5,0.2,5-0.5,7.4c-1,2.4-2.9,3.4-5.5,3.4c-12.6,0-25.1,0.1-37.7-0.1
		c-2.6,0-5.7,0.4-7.7-2.4c-5.3-15.2-10.7-30.3-16-45.5c-8.4-24.3-16.7-48.7-25.1-73c-1.1-3.1-2.2-6.3-3.3-9.4
		c-0.7,0.2-0.8-2.6-1.8-0.5c-0.8,1.7-0.4,3.6-0.4,5.4c0,40.6-0.1,81.2,0.1,121.8c0,4.1-1.8,4.7-5.1,4.7c-12.5-0.1-25-0.1-37.5,0
		c-2.8,0-5.6-0.3-8.4,0.6c-1.7,0.5-3.3,0.1-4.5-1.3c0-93,0-186.1-0.1-279.1c0-5,1.4-6,6.1-6c16.8,0.3,33.6,0.2,50.4,0
		c3.4,0,4.9,0.8,5.9,4.3c3.6,12.7,8.4,25.2,11.6,38c-3.8,4.3,0.2,8.2,0.5,12.2c0.5-1.9-0.2-4,1.6-5.5c3.3,8.2,6,16.6,8,25.2
		c-0.5,2,1.1,3.4,1.7,5c3,8.8,6.2,17.5,8.2,26.7C692.2,227.3,692.4,229.2,693.4,230.8z"/>
	<path fill="#AD6D3D" d="M1441.3,387.9c-7.3-0.4-14.6-0.7-21.9-1.1c-8.3-0.5-13.8-7-13.7-16.5c0.2-23.9,0.6-47.9,0.9-71.8
		c0.1-12.9-0.1-25.9,0.8-38.8c2.1,1.8,1.6,4.2,1.7,6.5c0.1,7.8,0,15.7,0,23.5c0,9.2,0,9.2,8.8,7.5c14.4-2.7,28.9-4.8,43.4-6.9
		c1.7,0.1,2.1,1.4,2.5,2.6c1,3,2.9,4.9,6.3,4.4c3.4-0.5,4.4-3.1,4.7-6.1c0.1-0.8,0.1-1.7,0.6-2.4c2.1-0.9,4.2-1.3,6.3-0.2
		c0.8,1.6,0.1,3.3,0.3,4.9c0.5,3.1,2.6,4.6,5.5,4.6c2.9,0,4.3-1.9,4.7-4.8c0.3-2.2-1.1-4.6,1-6.6c6.7-2.3,13.7-2.6,20.6-3.1
		c25-2,50-4.5,75-5.5c25.5-1.1,50.9-1.1,76.3,0.4c28.6,1.7,57,5.2,84.4,13.9c3.1,1.2,6.1,2.7,9.4,3.4c1.5,0.5,3.1,0.7,4.7,0.9
		c1.4,1.6,0.3,2-1.1,2c-6.5,0-12.6,1.9-18.9,3.1c-4.4,0.8-8.7,1.6-10.9,6.1c-2.2,3.9-6.4,6.1-8.1,10.3c-0.2,0.4-0.5,0.8-0.8,1.2
		c-3.9,3.5-3.9,8.9-6.2,13.3c-0.8,5.6-1.8,11.1-0.4,16.8c0.9,3.5-1.6,3.1-3.9,2.9c-11.1-0.9-21.9,0-31.9,5.4c-1.5,1.2-3,2.6-5.1,2.7
		c-4.3,2.4-8,5.4-10.9,9.4c-1.1,2.2-2.3,4.2-4.3,5.7c-5.2,7.4-8.4,15.6-9.8,24.5c-0.5,3-1.9,3.8-4.7,3.6
		c-10.6-0.8-21.2-1.4-31.8-2.3c-15.5-1.2-31.1-2.6-46.6-3.9c-9.5-1-19-1.8-28.4-3.2c-5.4-0.8-10.3,1-15.5,0.6
		c-1.4-0.1-2.8-0.4-4.1-1c-19.3-1.5-38.7-2.9-58-4.4C1455.5,387.2,1448.3,388.9,1441.3,387.9z"/>
	<path fill="#8DB23F" d="M859.6,351.9c16,0.1,32,0.2,48,0.1c4.3,0,5.9,1,5.8,5.6c-0.3,14.3-0.2,28.6,0,43c0.1,4.3-1.5,5.3-5.5,5.2
		c-38.6-0.1-77.3-0.2-115.9,0c-4.5,0-5.6-1.3-5.5-5.6c0.3-12.6,0.1-25.3,0.1-38c0-4.2-0.1-8.3,1-12.4c0.7-2,1-4.1,1.9-6
		c0.2-0.3,0.2-0.5,0.2-0.9c0.7-1.7-0.1-3.9,1.8-5.2c7.4-23.7,14.8-47.4,22.1-71.1c3.4-11.2,7.4-22.3,10.1-33.7
		c1.2-4.4,0.9-9.3,4-13.1c5.4-14.9,9.6-30.2,14.3-45.4c1.3-4.1-2.1-2.5-3.5-2.5c-15.6-0.1-31.2-0.1-46.8-0.1c-1.7,0-3.3,0-5-0.1
		c-1-0.9-0.6-2.2-0.6-3.3c0-15.3,0.1-30.6-0.1-45.9c-0.1-3.6,1-4.3,4.6-4.3c38.1,0.2,76.2,0.1,114.3,0.2c2.9,0,6.3-2.6,8.5,1.5
		c0,13.6-0.3,27.2-0.1,40.8c0.1,8.4-2.7,15.8-5.6,23.4c-1-0.4-1.3-3.6-3.1-0.6c-1.2,2-1.7,3.9-1.7,6.1c-0.1,3.3,0.4,6.6-0.8,9.8
		c-1,1.1-2.1,0.8-3.2,0c0,2.6,2,3.6,2.7,5.4c-3.5,11.9-6.9,23.8-10.5,35.7c-6.5,21.4-13,42.8-19.6,64.1c-0.5,1.7-1.3,3.4-1.9,5.1
		c-2.1,1.2-0.9,3.6-1.8,5.2c-0.1,0.6-0.2,1.2-0.3,1.8c-2.9,0.9-2.7,2.9-1.8,5.1c-0.7,3.2-1.5,6.4-2.2,9.7c-0.5,1.5-0.6,3.1-1.6,4.3
		c-0.1,0.7-0.2,1.3-0.3,2c0.2,3.1-1,5.8-2.4,8.4C857.9,348.2,857.4,350.2,859.6,351.9z"/>
	<path fill="#8DB23F" d="M35.6,119.8c9.7-0.1,19.3-0.2,29-0.2c41.1,0,82.2,0.1,123.4-0.1c4.2,0,5.8,0.8,5.7,5.4
		c-0.3,14-0.2,28-0.1,41.9c0,3.3-1,4.3-4.3,4.3c-12-0.2-24,0.1-36-0.2c-4.5-0.1-5.8,0.9-5.8,5.6c0.2,73.1,0.1,146.1,0.1,219.2
		c0,2-0.1,4-0.1,6c-1.1,2-2.7,2.5-5,2.5c-20.3-0.1-40.7-0.1-61,0c-3.8,0-5-1.3-5-5.3c0.1-73.3,0.1-146.6,0.1-219.9
		c0-8.7,0-8.7-8.9-8.7c-10.2,0-20.3-0.1-30.5,0.1c-3.4,0.1-4.2-1.1-4.2-4.3c0.2-12.8,0.1-25.7,0-38.5
		C33.1,124.7,33.7,122.1,35.6,119.8z"/>
	<path fill="#8DB23F" d="M1115.4,121.9c0.1,3.2,0.2,6.3,0.2,9.5c0,71,0.1,141.9-0.1,212.9c0,4.7,1.4,5.8,5.8,5.7
		c12-0.3,24,0.1,36-0.2c3.6-0.1,4.4,1.1,4.4,4.5c-0.2,15.2-0.2,30.3,0,45.5c0,3.4-1,4.4-4.2,4.2c-2.6-0.2-5.3-0.1-8-0.2
		c-2-1.3-4.2-0.8-6.3-0.8c-29.2,0-58.3,0-87.5,0c-2.1,0-4.3,0.5-6.4-0.7c-1.4-2.3-0.8-4.9-0.8-7.3c0-86.3,0-172.5,0-258.8
		c0-2.7,0-5.3-0.2-7.9c0.2,91,0.3,181.9,0.2,272.9c0,1-0.2,1.9-1,2.7c-1.6,0.2-3.1,0.4-3.2-1.9c0-1.2,0-2.3,0-3.5
		c0-90.8,0-181.5,0-272.3c0-6.2,0-6.2,6.2-5.9c2,1.1,4.2,0.8,6.3,0.8c17.4,0,34.9,0,52.3,0C1111.3,120.9,1113.5,120.4,1115.4,121.9z
		"/>
	<path fill="#8E4826" d="M1750.4,293.9c-10.3-2.4-20.5-5.4-30.9-7.2c-12-2.1-24.2-3.7-36.3-5c-28.1-3.1-56.3-3.4-84.4-2.6
		c-18.7,0.5-37.4,1.4-56,3.6c-11.6,1.4-23.4,2.1-35.1,3.2c-5.1,0.5-10.1,1.3-15.2,2c-1.8,0.6-2.9-0.4-3.7-1.8
		c-0.2-0.5-0.3-1-0.4-1.5c-0.1-1.3,0-2.5,0.5-3.7c0.5-0.9,1.3-1.5,2.2-1.9c3.3-0.7,2.9-3.4,2.9-5.8c0-2.1-0.7-3.5-3-3.5
		c-3-0.3-6.1-1.5-8.9,0.8c-0.9,0.6-1.4,1.4-2,2.2c-1.8,2.1-3,1.3-4-0.8c-0.8-1.6-0.7-4-2.8-4.4c-2.4-0.5-5-0.5-7.4-0.1
		c-2.6,0.4-4.7,4.9-4.1,8.7c0.5,3.3,2.6,5,5.8,5.1c2.7,0.1,5.4-0.3,6.9-3c0.3-0.4,0.5-0.8,0.9-1.1c1.1-1,2.4-2.4,3.8-1.3
		c1.8,1.4,1.9,3.7,1.3,6c1.5-0.2,2.8-1.2,4.3-0.5c0.7,0.3,1.2,0.9,1.5,1.6c0.3,1,0.3,2-0.1,3c-1.2,1.8-2.7,2.9-4.9,3.1
		c-1.9-0.2-3.8,1.6-5.7,0c-5-3.2-9.4-2.5-13.2,2c-8.8,3.3-18.2,2.9-27.2,4.9c-6.8,1.5-13.7,2.3-20.5,3.6c-6.6,1.3-7,1-7-5.8
		c-0.1-11.3-0.2-22.6-0.2-33.9c0.2-20.2,0.4-40.4,0.7-60.5c0-1.8-0.5-3.6,0.5-5.3c1.9,2,1.3,4.2,0.9,6.5c-0.1,0.7-0.1,1,0,0.4
		c0-0.1,0.6-0.2,0.9-0.3c1.5,0.1,1.8,1.2,2.3,2.2c1.5,2.7,3.5,2,5.2,0.3c1.1-1,0.8-3.9,3.1-3.2c2.7,0.8,1.2,3.5,1.7,5
		c0.7-1.8-1.5-5.4,1.9-6c2.8-0.5,2.1,3.6,3.8,5.1c0.8,0.7,0.5,1.8,0.6,2.8c0,0.7-0.2,0.2,0.2,0.4c0.5,0.2,0-0.5,0.2-0.8
		c1.4-2.1,1.4-4.5,2.2-6.8c0.7-0.7,1.5-1.2,2.5-0.5c0.2,0.3,0.4,0.5,0.5,0.8c1.9,6.8,1.9,6.8,8.9,6.7c1.2,0.4,2.2,1.7,3.6,1.4
		c4.4-0.8,5.4,2.1,6.1,5.4c-0.2,0.8-0.7,1.5-1,2.2c-1.3,2.5-1.7,5.1,0.4,7.3c2,2.1,4.4,1.8,6.8,0.6c0.6-0.3,1.2-0.5,1.8-0.7
		c2.9-3,5.8-0.7,8.7-0.1c3.3,0.2,6.6,0.2,8.7-3.1c1.4-1.7,0.6-3.2-0.3-4.7c-0.2-0.7-0.2-1.4,0.1-2.1c0.9-1.1,1.8-1.6,3-0.4
		c1.3,1.4,1.3,3.5,2.3,5c4.4,4.7,6.2,4.9,11.5,1.7c1.6-0.7,2.5-2.8,4.7-2.5c4.4,4,9,3.4,13.6,0.3c1.9-0.8,3.9-0.6,5.9-0.1
		c2.5,0.7,5.1,0.6,7.6,1c3,0.5,4.2,4.1,8.2,3.6c11.5-1.5,22.6,0.4,33.3,4.8c1.9,0.8,3.8,1.1,5.9,1.1c10,0.2,19.8,2.2,29.6,3.6
		c10.3,1.5,20.7,2.8,31,4.7c5-3,9.1,2.6,13.9,1.4c5.1-1.2,9.3,2.1,14.1,2.3c1.9,0.1,3.6,0.7,5.2,1.6c2.2,1.2,4.4,1.4,6.8,0.7
		c4.7-1.4,9.2-0.7,13.5,1.6c1.5,0.8,3.1,1.5,4.7,1.6c15.6,0.2,30.6,5.5,46.1,6.5c3.6,0.2,7,2.3,10.8,1.2c1.8-0.5,3.5-0.7,4.9-2.1
		c2.6-2.5,3.7-1.3,3.8,1.8c-0.1,0.6-0.6,1.1-1,1.6c-0.2,0.4-0.5,0.8-0.3,1.3c0.1,0.2,0.1,0.1,0-0.4c-0.1-0.3,0.1-0.6,0.3-0.9
		c1.9-0.2,4.1-1.3,4.9,1.6c-5.9,13.9-3.4,27.5,1.4,41c-1.3,1.4-2.7,1.4-4.1,0.1C1757,294.2,1753.3,295.1,1750.4,293.9z"/>
	<path fill="#8DB23F" d="M1531.5,104c0.3,0,0.7-0.1,1-0.2c1.8-1.3,4.1-1.1,6.1-1.9c14.9-4.3,29.8-8.5,44.7-12.8
		c8.1-2.3,16.1-4.9,24.2-7.3c1.7-1.6,4.2-0.9,6.1-1.9c0.3,0.1,0.6,0,0.9-0.1c1.6-1,3.5-1.2,5.3-1.8c10.9-2.1,21.4-5.9,32.1-9
		c28.5-8.2,57-16.7,85.5-25.1c0.2,0,0.3,0,0.5-0.1c3.8-0.9,8.3-4.4,11.1-2.1c2.4,2,0.5,7.2,0.5,11c-0.2,7.5-0.8,14.9-0.8,22.4
		c0,3.8-1.4,5.2-5,5.8c-24.3,4.5-48.6,9.2-72.9,13.9c-18.6,3.6-37.1,7.2-55.7,10.8c-1.1,0.2-2.3,0.1-3.5,0.2
		c-0.7-3.1,1.1-2.7,2.8-2.4c-0.6-0.6-1.8-0.8-2.6-0.2c-3.7,2.7-7.9,2.2-12,2c-6.9-0.3-13.3,1.9-19.9,3.3c-2.1,0.4-4.2,0.8-6.4,0.8
		c-1.3,0-2.7-0.1-3.8,0.9c-6.1,5.1-12.1,3.4-18.8,0.7c-6.6-2.7-13.7-6.3-21.2-0.8c-3.2,2.4-6.7,1.1-9.1-2.2c2-0.7,4-1.5,6-2.2
		C1528.1,104.9,1529.4,103.3,1531.5,104z"/>
	<path fill="#793D1F" d="M1439.5,163c6.6-1.9,13.3-2.8,20-3.8c5.4,2.4,10.4-0.9,15.6-1.2c2.2-1.2,4.2-0.9,6.2,0.5
		c1.5-0.7-1.1,2.9,1.3,1.2c1.4-1,3-0.8,4.6-0.5c4.1,0.1,8.1-1,12.2-0.6c2.4,0.8,7.3-1.8,5.9,4.3c-0.3,1.2,1.3,1.5,2.2,1.5
		c6.6-0.4,12.9,4.1,19.6,1.6c11,3.7,22.9,0.9,34,4.4c0.6,0.2,1.5,0.2,1.9,0.6c6.8,6.4,15.6,2.8,23.2,4.6c9,2.1,18.5,0.2,27.3,4.2
		c7.3,3.3,15.6,2.5,23.5,2.8c3.9,0.2,7.6,0.6,10.8,3.2c2.5,2,5.7,2.5,8.5,1.6c4.2-1.3,8.6-0.9,12.8-2.1c3.3-0.9,5.9,0,7.5,3.2
		c1.2,2.4,2.9,3.2,5.7,2.4c4.5-1.2,8.6,1.8,13.1,2.1c1.3,0.1,2.5,1.1,3.9,0.8c9.5-2.1,18,1.1,26.4,4.8c2,0.9,4.2,1,6.4,1.1
		c8.9,0.4,17.8-0.5,26.8,1.7c4.1,1,8.1,1.5,12.3,3.2c5.8,2.3,12.7,2.8,17.9-2.8c2.1,1.2,1,3.2,1.3,4.7c0.3-4.1,0.3-4.1,3.2-4.5
		c-0.1,8-0.2,16-0.2,24c-1.6-0.2-3.5,1.4-4.7-0.9c-1-2.2,0.4-5.2-1.1-6.7c-1.5-1.5-4.3,0.3-6.6-0.2c-3.8-0.9-7.6-0.8-11.4-0.8
		c-1.7,0-3.4,0-4.9-0.7c-5.7-2.9-11.9-2.1-17.9-2.6c-1.1-0.1-2.3,0.1-3.5-0.2c-17.3-4.7-35.2-6.8-52.8-10
		c-6.2-1.1-12.5,1.1-18.8-0.3c-4.3-1-8.7-2.3-13-3c-10.8-1.7-21.1-7.8-32.6-4.4c-0.8,0.2-1.8,0.5-2.4,0.1
		c-4.5-3.3-10.3-2.4-15.2-4.5c-4.8-2.1-9.9-2.8-15.2-1.8c-2.5,0.5-5,0.4-7.4-0.2c-7.1-1.8-14.3-2.9-21.6-3.6
		c-6.2-0.6-12.1-2.3-18.6-1.5c-3.5,0.5-7.6-1.1-10.8-3.2c-2-1.3-2.9-0.4-4.3,0.3c-4-0.1-8.2-2-12,0.7c-0.5,0.1-0.9,0-1.3-0.1
		c-1.4-2.1-2.4-1.1-3.5,0.3c-2.6,1.9-3.4-0.7-4.8-1.9c-1.1-1.2-1.9-1-2.6,0.5c-0.6,1.1-1.4,1.7-2.8,1.4c-1.8-1-3-3.1-5.3-3.3
		c-10.2-2.8-20.7-4.1-31.3-4.8c-2.2-0.1-4.3-0.4-6.2-1.6c-1.3-0.8-2.7-1.5-4.2-1.2c-7.4,1.6-12.1-3.1-17.2-7
		C1439.1,164,1439.2,163.5,1439.5,163z"/>
	<path fill="#693318" d="M1621.4,130.1c10-1.9,19.9-4.2,30-5.3c1,0.1-0.2,2.3,1.4,1.6c1-0.5-0.2-0.4-0.4-0.6
		c-0.3-0.4-0.7-0.6-1.1-0.9c2.6-1.2,5.4-1.4,8.1-1.7c1,0.4,2,0.9,2.8-0.3c4.3-1.5,8.7-1.9,13.1-2.6c1,2,1.7,4-0.1,5.9
		c-3.1,1.6-6.3,0.6-9.5,0.8c-1.8,0.1-3.5-0.3-5.2,0.5c0,0.4,0.1,0.6,0.5,0.7c4.9-1.5,10.3,0.2,15-2.7c3.6-1.3,7.6-0.7,11.1-2.4
		c1.2-0.6,3-0.4,3.8,0.6c3,3.8,7.1,3,11,3.1c0.7,0,1.3,0,2,0.1c1.6,0.3,3.8,0.1,3.7,2.4c0,1.9-2,1.8-3.5,2.1
		c-0.8,0.1-1.7-0.1-2.5,0.3c1.5,1.1,3,0.6,4.2-0.2c6.3-4.4,12-1.7,18.2,0.5c5.6,2,10.6,6.4,17.7,3.4c4-1.7,8.6,2.1,13,2.3
		c8.8,0.3,17.2,3.4,25.9,3.2c4.4-0.1,7.3,3.6,11.5,3.4c0.9-0.1,0.7,1.6,0.8,2.6c0.2,2.6,0.2,5.3,0.9,7.9c0.5,5.4-1.3,10.5-1.3,15.8
		c0,1.5-0.6,3.1-2.4,3.4c-1.8,0.3-1.9-1.4-2.4-2.6c0.5-3.6-0.8-5.7-4.8-5.5c-1.5,0.1-2.9-0.7-4.3-1.3c-2.3-1-4.4-1-6.4,0.9
		c-2.5,2.4-5.1,2.2-7.2-0.8c-1.2-1.8-2.8-2.8-5-2.7c-5.2,0.2-10.2-1.8-15.1-2.3c-8.6-0.8-16.4-5.2-25.3-4.2c-9.4,1-18.8-1-28.2-1.7
		c-0.7,0,0,0.3-0.5,0c-4.4-3.1-9.1-3.3-14.1-1.8c-0.4,0.1-1.1,0-1.4-0.3c-2.9-3-5.9-4.5-9.7-1.2c-0.7,0.6-1.9-0.2-2.7-0.9
		c-2.7-2.5-6.3-3.5-9.7-3.5c-8.5-0.1-16.8-2.2-25.2-2.5c-3-0.1-6-0.2-8-3.1c-0.9-1.7,0-3.7-0.7-5.4c-0.3-0.8-0.6-1.7-0.5-2.6
		C1619.4,130.9,1620.5,130.6,1621.4,130.1z"/>
	<path fill="#71381B" d="M1793.6,181.9c0.5,3.7,0.5,7.3,0,11c-1.1,0.5-1,1.6-1.3,2.5c-0.5,1.7-1.5,2.6-3.3,1.4
		c-0.6-0.8-0.8-1.7-1.2-2.6c-10.7,0.8-20.3-5.1-30.7-5.2c-9-0.1-17.4-3.3-26.3-3.5c-5.8-0.2-11.6-2.3-17.6-2.6
		c-11.2-0.6-22.1-3.8-33.4-3.8c-4.6,0-9.1-2-13.4-3.4c-10.2-3.4-20.8-4.2-31.3-5.1c-12.9-1.2-25.7-3.2-38.4-5.6
		c-2.1-0.4-4.2-0.9-6.4,0c-0.9,0.4-2.2,0.8-2.8-0.2c-2.6-4-6.6-2.5-10-2.4c-4.9,0.2-9.4-0.2-13.8-3.1c-4.3-2.9-9.5-2.7-14.5-2.8
		c-1.2,0-2.4,0.6-3.5,0.3c-7-1.9-14.1-3.1-21.4-1.9c-1.3,0.2-3.7,0-2.5-2.8c2.6-2.7,5.9-3.1,9.4-2.8c-3-0.2-6-0.1-8.5,2
		c-1.3,1.2-3.1,0.4-4.6,1.3c-1.2,0.8-2.7,0.6-3.5-0.7c-1-1.7,1.2-1.9,1.7-2.9c13.9-2.7,27.8-5.5,41.9-7.4c1.6,3.5-1.4,2.5-3,2.9
		c-0.5,0,0.4,0.9,0.1,0.3c2.7-0.1,5.4-0.3,8.1-0.6c2.8,0.6,5.6-0.3,8.4,0c3,1.2,5.9,2.1,9.1,0.7c2.1-0.8,4.4-0.1,5.9,1.7
		c2.2,2.5,5.2,2.4,8.1,3c11.5,2.4,23.3,2.3,35,4.1c16.8,2.6,33.2,8.8,50.7,6.8c2.7-0.3,5.2,0.7,7.8,1.5c5,1.6,10.4,1.9,15.5,3
		c9.1,2,18.5,2.1,27.5,4.4c2.8,0.7,5.6,1.1,8.4,1c3.5-0.1,6.9,0.5,10.3,1.7c4.1,1.5,8.3,2.7,12.7,1.8c1-0.2,2.1-0.3,3,0.2
		c6.4,3.3,13.3,2.6,20.1,2.2C1790.5,176.1,1790.9,180.3,1793.6,181.9z"/>
	<path fill="#643015" d="M1675.4,125.9c0.5-1.9-1-3.8,0-5.7c16.6-3.1,33.1-6.2,49.7-9.3c1.5-0.3,2.9-0.7,4.3-1.1
		c6.6-1.9,13.5-2.6,20.3-3.8c0.9-0.1,1.8-0.2,2.7-0.3c2.6-1.2,5.5-1.1,8.2-1.7c1.8-0.1,3.7-0.1,5.5-0.2c4.9-0.7,9.8-0.6,14.7,0
		c7.3,0.6,10.9,3.5,12.6,10c0.6,13.4,0.9,26.7-0.2,40.1c-1.5-1.8-0.5-4.2-1.7-6.1c-0.7-1,1.8-2.5-0.3-3.3c-2.6-1-1.3,2.6-3,2.9
		c-2-5.5-3.2-6.1-9.6-4.8c-2.6,0.5-5.2,0.5-7.1-1.3c-2.3-2.3-4.6-2.6-7.6-1.6c-6.1,2.2-11.5-1.8-17.2-2.8c-2.9-0.5-5.4-1.8-7.7,0.8
		c-0.9,1-1.9,1-3.2,0.5c-3.9-1.3-8.6-2.3-11.4-4.5c-4.2-3.3-8.9-2.1-13-3.7c-1.4-0.5-2.7,0.3-3.9,1.5c-3.7,3.5-5.5,3.3-9.7-1.3
		c3.2-0.2,6-0.4,10.1-0.7c-4-2.6-7.3-1.2-10.3-1.6c-2.5-0.4-5.7,1.3-6.8-3.1c-0.4-1.5-3-1.4-4-0.7
		C1683.3,126.8,1679.3,125.6,1675.4,125.9L1675.4,125.9z"/>
	<path fill="#894524" d="M1757.4,253.8c-0.1-1.1,0.3-2.3-0.9-3.6c-2.5,5.6-8.1,5-12,4.2c-8.9-1.8-18-2.1-26.7-4.6
		c-5.2-1.5-10.6-0.5-15.9-3.2c-3.2-1.6-8.3,0.9-12.5-0.7c-3-1.2-5.3-3.7-9.1-3.2c-1.9,0.2-3.6-0.1-5.6,0.7c-2.3,0.9-4.8,0.4-7.6-0.6
		c-5.8-2.2-11.7-4.5-18.3-4.1c-3.3,0.2-7.8,2.3-9.1-5c-1.7,5.3-3.7,3.9-6.8,3.3c-5.2-1.1-10.5-2.3-15.8-2.8
		c-8.4-0.8-16.7-3.1-25-3.5c-6.6-0.3-12.8-3.3-19.5-1.8c-0.3,0.1-0.7,0.1-1,0c-8.5-4.1-17.7-4.8-26.8-6.4c-2.3-0.4-4.1-1.3-6.5-0.2
		c-2.9,1.4-6.1,0.5-9.3-0.2c-3.2-0.6-0.4-1-0.3-1.8c0.2-1.7-2.1,0.2-2.4-1.3c2.2-3.6,3.7-7.4,4.9-11.4c0.6-0.2,1.5-0.5,1.9,0.1
		c2,3.3,5.3,4.1,8.8,4c5.6,0,11.1,1.8,16.7,1.1c1.7-0.2,3.3,0.2,4.9,0.8c3.3,1.4,6.6,2.1,10.2,1.3c2.6-0.5,4.9,1.2,7.3,1.1
		c8.6-0.1,16.7,1.6,24.1,6c0.5,0.3,1.3,0.3,2,0.2c6.9-1.6,13.5,1.3,20.2,1.3c7.5,0,14.1,3,21.2,4c6.6,0.9,13,3,19.5,3.3
		c7.9,0.4,15.7,1.4,23.4,2c5.4,0.5,10.5,2.2,16,2.6c3.6,0.2,7.7,0.7,11,1.9c3.9,1.4,8,1.9,11.8,3.3c0.9,0.3,1.9,1,2.9,0.7
		c6-1.5,11.8-0.1,17.7,0.6c5.2,0.6,8.1,2.9,10.4,7.1c-1.7-4.9-0.9-6.4,4.3-7.4c1.3,0.8,2.5,1.6,4.1,1.5c0.4,0.2,0.7,0.4,1,0.9
		c-1.1,4.2-5.1,6.3-7.2,9.7c-0.5,0.6-0.9,1.3-1.4,1.9C1761,254,1758.6,255.5,1757.4,253.8z"/>
	<path fill="#834222" d="M1783.5,235.9c-3,1.7-6,3.4-9,5.2c-3.8-1-7.6,0-11.4-0.5c-5.4-0.7-11,0.2-16-2.9c-1.1-0.7-2.6-0.5-3.9-0.3
		c-9.9,1.3-19.7,0.1-28.9-3c-8.9-3-18.3-3.1-27.1-6.1c-1.9-0.6-4-0.8-5.9-0.8c-7.9,0.1-15.6-0.9-23.1-3.6c-1.4-0.5-3-0.2-4.5,0
		c-2,0.3-4.1,0.6-5.9-0.3c-5.7-3-11.7-2.9-18-2.9c-7,0-14.1-0.2-20.8-3.7c-4.2-2.2-9.4-1.8-14.2-2c-1.3,0-2.9,0.4-3.9-0.3
		c-8.6-5.6-18.5-2.6-27.7-4.3c-2.4-0.5-5-0.2-7.3-1.4c-0.6-0.3-1.4-0.7-1.9-0.4c-5.2,3.7-9-0.8-12.9-2.6c-3.3-1.5-6.7,0.8-9.7-1.1
		c-1.8-1.6-3.9-2.2-6.2-1.1c-3.2,0.9-6.9,1-8.9,4.3c-0.5,0.5-1,0.9-1.7,1.2c-0.5,0.1-0.9,0-1.3-0.2c-0.8-1-1.5-2.1-2.5-2.9
		c-1.1-1-1.7-2.4-3.3-3.5c0.8,3.4-1.6,3.5-3.7,4c-0.5,0.1-0.9,0-1.4-0.1c-3.5-4.4-3.4-7,0.3-10c0.8,0,1.6,0.1,2.4,0.2
		c6.9,0.2,8.6-2.1,7.8-10.5c0.1-0.4,0.2-0.9,0.4-1.2c2-0.2,0.9-4.4,4.1-3.1l0.2,0.2c0.8,1.4,0.2,2.9,0.2,4.4c0,6.1,2.6,8.4,8.7,7.4
		c1-0.2,1.9-0.5,2.9-0.3c0.7,0.1,1.5,0.4,2.2,0.7c11.2,0.5,21.8,4.3,32.8,5.7c5.9,0.7,11.8,2,17.8,1.1c1.5-0.2,3,0.1,4.3,0.8
		c2.7,1.5,5.6,1.9,8.7,1.8c3.9-0.1,7.7,0,10.8,2.8c0.9,0.8,2.1,1,3.3,0.4c3.5-1.7,6.7-0.6,10,0.8c4.7,2,9.8,1.1,14.7,1.7
		c1.5,0.2,3-0.2,4.4,0.3c13.1,4.4,26.7,6,40.5,5.1c2.8-0.2,5.2,0.9,7.7,2c8.7,4,18,4.2,27.3,4.8c4.2,0.3,7.9,2.2,12.1,2.4
		c13.4,0.6,26.5,4.5,40,5.1c1,0,2.2,0.8,2.9,0.2c5.1-4.3,8.9,0.9,13.3,1.9C1784.8,231.6,1784.3,233.9,1783.5,235.9z"/>
	<path fill="#7F4021" d="M1783.5,235.9c-0.4-2.1,0-4.8-3.7-4.1c-1.9,0.4-2.7-1.8-4.2-2.3c-1.6-0.5-3.6-3-4.3,0.9
		c-0.3,1.4-1.3,1-2.3,0.8c-9.1-1.9-18.6-1.6-27.5-3.7c-7.1-1.7-14.5-0.9-21.3-2.9c-8.5-2.4-17.2-2.1-25.7-3.6
		c-3.9-0.7-7-2.8-10.6-4.1c-2.5-0.8-4.8-0.6-7.2-0.7c-5.2-0.3-10.5,1.9-15.7-0.9c-2-1.1-4.9-0.7-7.3-0.9c-5.6-0.6-11.1-0.8-16.2-3.8
		c-2-1.2-5,0.4-7.7,0c-5.2-0.8-10.8-3.2-15.2-2.9c-5.4,0.4-9.3-1.3-14-2.5c-5.2-1.4-10.8-0.4-16.4-2.7c-3.2-1.3-8.4-0.9-12.5-0.7
		c-7.3,0.4-14.1-1.7-20.9-3.3c-6-1.4-11.9-2.3-18-2.7c-0.7-0.1-1.5-0.6-2.2-0.9c1.2-3.2,2-7,6.9-6.1c0.4,0.3,0.2,0.8,0.5,1.2
		c0.5-0.4,0.4-1,0.7-1.5c1.2-1.6,2.9-2.1,4.5-1.4c5.9,2.6,12.2,0.5,18.2,1.6c0.6,0.1,1.4-0.2,2,0.1c11.7,5.5,24.6,4.5,36.9,6.7
		c16.9,3.1,33.6,7.6,51,7.8c1.2,0,2.3,0.3,3.4,0.6c5.1,1.4,10.3,2,15.6,2.4c6.5,0.5,13,2,19.6,2.8c3.5,0.4,6.8,1.1,10.3,0.8
		c4.3-0.4,8.8,0.2,12.7,2c10.3,4.6,21.4,3.9,32.1,5.7c11.6,2,23.5,2,34.7,6.2c2.1,0.8,4.3,0.5,6.4,1c1,0.1,1.7,1.2,2.8,1.2
		c0.2,0,0.3-0.1,0.5-0.1c1.3,0.2,2.6-2.3,3.9,0c1.1,4.7,0.2,7.9-5.5,8.3C1786.4,234.3,1784.9,235.3,1783.5,235.9z"/>
	<path fill="#743A1D" d="M1522.5,151.9c0.8,2,5.3,2.9,8.4,1.4c1-0.5,1.8-1.8,3-1.1c8.2,4.7,17.4,2.1,26,3.7c0.8,0.1,1.7,0.3,2.3,0.8
		c6.1,5.4,13.4,4.3,20.6,4.2c1.9,0,5.5-1.9,5,2.8c0,0.2,1,0.7,1.1,0.7c3.1-4.2,6.8-1.2,9.9-0.5c6.4,1.5,13,1.8,19.4,3.3
		c7.3,1.7,15.1,2.5,22.6,2.3c6.9-0.2,13.8,1.2,20,2.9c5.3,1.4,11,2,16.3,4.5c4.4,2.1,10.3,1,15.5,1.3c1.3,0.1,2.9-0.7,3.9-0.2
		c8,4.3,17,1.9,25.1,4.1c8.6,2.3,18,0.5,26.1,5.1c0.4,0.2,1,0.5,1.4,0.4c7.5-2.6,14.2,0.7,21.1,2.8c2.3,0.7,6-0.7,7.2,0.6
		c3.5,3.8,6.4,2.1,9.8,0.5c2.5-1.2,2.3,0.8,2.4,2.3c-0.7,0.8-1,1.7-1,2.7c0.2,3.4-1.7,3.8-4.7,4.1c-9.4,1-17.8-3.4-26.8-4.2
		c-9.6-0.9-18.8-4.1-28.4-4.3c-3-0.1-5.9-0.8-8.8-1.7c-5.9-1.9-11.9-3-18.2-2.4c-2.7,0.2-5.3-0.5-7.9-1c-4.7-1-9.4-1.7-14.3-1.2
		c-5,0.5-9.6-2.4-14.5-3.3c-4.1-0.8-8.2-1.7-12.3-2c-4.2-0.3-8.3-0.8-12-3c-0.9-0.5-1.9-1-2.9-0.8c-6.7,1.3-13.1-1.8-19.8-1.6
		c-4.8,0.2-9.3-2.5-14.2-2.3c-8.7,0.4-16.9-2.7-25.7-2.5c-5.4,0.1-11.4-0.8-16.9-3.2c-5-2.2-10.7-3-16-3.4
		c-7.8-0.5-15.4-2.3-23.2-2.6c-2.3,0-4.6-0.3-6.6,1.2c-2.3,0.9-4.1-0.2-5.9-1.5c-3.1-2.2-6.5-3.1-10.1-1.1c-4.3-1-8.7,1.7-13,0
		c0.9-1.2,2.1-2,3.6-2.4c-3.1-0.5-5.8,0.6-8.6,1.4c-2,0.3-4-1.6-6,0c-1.3-0.4-1.3-0.4-0.1-2.4c13.7-2.5,27.4-4.9,41.2-7.4
		c1.6,1.6-1.8,1.8-0.9,2.7c1.2,1.3,2.4,0.2,3.3-0.8C1520.6,149.1,1521.4,151.2,1522.5,151.9z"/>
	<path fill="#864424" d="M1530.5,203.9c6-1.9,11.3,1.9,17,2.3c2.3,0.1,0.6,2.7,2.4,3.5c2-3.6,4.1-3.6,8-1.6
		c3.5,1.9,8.4,1.9,12.6,1.6c5-0.4,9.8,0.8,14.7,0.4c0.3,0,0.8-0.1,1,0c6.1,6.3,14.4,2.3,21.4,4.7c1.7,0.6,3.2,0.8,4.7,2.1
		c3.8,3.1,8.8,1.9,13.1,2.4c7.8,0.9,16-1.6,23.3,3.5c0.7,0.5,2,0.4,2.9,0.1c3.6-1,6.8-0.6,10.5,0.8c7.8,3.2,16.7,0.5,24.3,3.1
		c7.7,2.6,15.7,1.5,23.2,4.9c5.1,2.3,10.9,4.6,17,3.3c0.2,0,0.4-0.1,0.5,0c6.5,2.9,13.8-0.6,19.9,1.4c6,2,11.8,2.3,17.7,2.9
		c1.8,0.2,3.5,0.7,5.3,0c1.9-0.8,3.6-0.2,4.5,1.9c-0.3,1.2-2.9,0.3-2.2,2.4c-0.3,0.9-0.8,1-1.5,0.6c-0.4,0-0.9-0.1-1.3-0.1
		c-0.8-0.9-2.1-0.2-3-1c-2.2-1.2-3.6,0.5-4.6,1.8c-1.5,2.1,1,3.1,1.9,4.5c-3.5,2.8-4.7-0.5-6-2.4c-0.8-1.1-0.6-3-2.7-2.9
		c-7.3,0.4-14.4-4.8-21.8-0.5c-1.3,0.7-2.2-0.4-3-1.2c-1.5-1.5-3.2-1.4-5.1-1.1c-0.8,0.2-2,0.6-2.3,0.2c-2.7-3.3-6.9-1.6-9.5-2.9
		c-5.2-2.5-11.2-0.3-15.8-4c-0.5-0.4-1.6-0.7-1.8-0.5c-3.8,3.4-7.8-1.9-11.5,0.4c-7.8-5.6-17.6,1.2-26-4.4
		c-3.2-2.1-9.2-0.2-13.8-1.8c-2-0.7-4.1-0.8-5.8-2.4c-0.6-0.6-2-1-2.7-0.8c-7.7,2.8-14.7-2.4-22.2-1.9c-4.9,0.3-10,1.7-14.2-1.8
		c-4.7-3.9-9.8-4-15.4-2.9c-1,0.2-2.2-0.5-3.3-0.9c-2.8-1.1-5.5-2.3-8.6-0.8c-0.7,0.3-1.8,0.4-2.4,0.1c-6.1-3.2-13-1.9-19.5-3.2
		c-3.6-0.7-7.8-0.7-11.8-0.3c-0.3,0-0.4,1.1-0.9,0.2c-1.4-2.6-4.5-3.4-6.3-5.6c-1.9-0.2-2.2-1.6-2.3-3.1
		C1529.2,204.1,1529.5,203.6,1530.5,203.9z"/>
	<path fill="#6D351A" d="M1793.3,153.9c0.1-13.4,0.1-26.7,0.2-40.1c0.3,0.8,0.8,1.6,0.7,2.3c-0.3,21.9,0.8,43.9-0.7,65.8
		c-1.9-0.2-4.9,1.3-4.3-3c0.3-1.9-1.5-1-2.5-1c-3.7,0-7.3,0-11,0.1c-3,0.1-5.9,0.1-8.5-2c-1-0.9-2.4-1.3-3.8-0.8
		c-5.7,2-10.7-0.5-15.8-2.4c-1.1-0.4-2.2-0.9-3.3-0.8c-9.4,0.8-18.3-3.4-27.5-3.1c-6.6,0.2-12.1-4.8-19-2.4
		c-2.4,0.8-6.2-1.4-8.9-2.7c-3.6-1.7-7-2-10.6-1.8c-13.4,0.8-26-3.2-38.9-5.4c-10-1.7-20.1-5-30.6-3.2c-1.2,0.2-2.3,0.3-3.3-0.4
		c-3.4-2.3-7.2-2.2-11.1-2c-3.4,0.1-6.6,0.3-8.5-3.6c-1-2-3.7-2.1-4.9-1.2c-3.9,3-6.7,0.6-9.7-1.2c-0.3-0.6-0.2-1,0.3-1.4
		c2.3-1.3,4.7-0.8,7.1-0.9c2.1-0.1,4.4,0.6,6.1-1.2c1.5-1.1,2.8-2.6,5-2.1c1.4,0.9,2.8,0.8,4.2,0.1c0.8,0,1.4,0.2,1.9,0.8
		c0.5,1.2,0.6,2.4-0.2,3.5c-1,1.3-2.5,1.3-3.8,1.3c1.5,0.2,3-0.2,4.2-1.5c2.1-1.1,4.3-1,6.3-0.3c2.9,1,5.7,1.8,8.7,0.6
		c0.6-0.3,1.3-0.3,2-0.1c13.7,4.9,28.1,5.1,42.3,7c2.7,0.3,5.2,1,7.8,1.6c7.5,1.8,15.2,3.6,22.8,4.1c8.2,0.6,16.5,1.6,24.7,2.5
		c6.3,0.7,12.6,2.5,19,3.2c7.9,0.9,15.4,3.7,23.3,4.2c6.9,0.4,13.4,2.4,20.1,3.4c5.1,0.7,10.2,1.5,15.3,1.3c0.6,0.7,1.2,1.5,1.7,2.2
		c0.4-0.5,1.1-1,1.1-1.4C1790.1,165.5,1794.4,160,1793.3,153.9z"/>
	<path fill="#8EB33D" d="M1520.5,107.9c4.2,1.9,8.3,3.4,11.7-1.5c0.4-0.6,1.9-0.5,2.8-0.5c6.7-0.1,13.2,0.8,18.8,5.1
		c2.8,2.2,11.5,0.8,14.3-1.9c0.5-0.5,1.5-1.2,2.1-1.1c5.6,1,10.8-1.3,15.8-2.5c7.1-1.7,14-1.4,21-1.7c2.9-0.2,5.4-3.7,8.9-0.8
		c-1,1.7-4.4-0.1-4.4,2.8c-0.6,0.1-1.1,0.1-1.7,0.2c-11.7,0.4-23,3.6-34.6,5.3c-2,0.3-3.8,1.7-5.7,2.6c-15.1,3-30.2,6-45.3,9
		c-18.9,3.7-37.8,7.4-56.7,11.1c-4.2-4.6-2.6-10.4,3.2-12c3.2-0.7,6.4-1.4,9.7-2.1c4.8-1,9.9-1,14.1-4.1l0,0c2.1,0.5,4,0.5,5.2-1.7
		l-0.1-0.3c0.6-0.4,1.1-0.7,1.8-0.8c2.1-0.2,4.4,0.4,6-1.6c1.2-1.3,3-0.5,4.2-1.4C1514.7,110.2,1517.3,107.8,1520.5,107.9z"/>
	<path fill="#7E4021" d="M1439.5,163.9c2.7,1.5,5.9,2.3,8,4.9c0.5,0.6,1.5,1.2,2.1,1.1c6.9-1.3,12.8,2.8,19.4,3.2
		c10.3,0.6,20.5,2.1,30.5,4.9c0.4,4.2-3,3.8-5.4,4.5c-1.2-0.2-2.1-1.2-3.3-1.5c-3.3-1.5-5.4-0.4-5.6,3.1c-0.2,4.2-2.3,3.3-4.5,1.9
		c-1.9-1.2-3.7-2.2-6.1-1.3c-0.8,0.3-2,0.5-2.4-0.1c-3-4.3-6.7-2.1-10.4-1.4c-2.6,0.5-5.3,0.3-8-0.1c-1.2-0.2-2.5-0.5-2.6-1.9
		c-0.1-1.7,1.2-2.1,1.5-2.1c-5.4,1.8-11.4-1.8-17.8-1.7c-2.1,0-4.2,0-6.3,0c-2.6,0-5.2,0.1-7.8-0.2c-1.2-0.2-2.1,0.5-3.2,1
		c-3.6,1.7-4.8,1.2-5.5-3c-0.2-1.4-2.6-0.2-1.7-2c1.5-5.3,6.1-6.5,10.5-7.5c4-0.9,8.2-1.1,12.2-1.6
		C1435.3,162.7,1437.4,165.2,1439.5,163.9z"/>
	<path fill="#834222" d="M1410.5,172.9c1.6,1.4,2.9-1.5,4.5-0.4c-0.1,1.9-3.7,2.5-2.1,4.5c2.5,3,4.2-1.3,6.5-1.1
		c1.6,2.6,4.2,3.3,6.9,4.4c11.8,4.6,24,1.5,36,2.5c4.4,0.4,7.3,2,9.6,5.5c-0.5,2-2.8,2.3-3.7,4c-1.1,1.5-1.5,3.2-1.8,4.9
		c-0.2,1.1-0.6,2.2-1.7,2.8c-3.1,0.4-1.5-3.1-3.3-3.8c-5.8-4.5-8.8-3.5-11.6,3.9c-1.6,2.8-3.3,4.5-5.4,0.4c-3.1-5.2-7.3-3-11.3-1.6
		c-0.6,0.3-1.2,0.7-1.8,1c-1.4,0.1-1,2.2-2.5,2.3c-3.6-1.6-2.6-4.9-1.9-7.3c0.8-2.9,3.6-0.9,5.6-1c-1.9-1.2-3.8-0.9-5.8-0.8
		c-2.8,0.1-5.6,0.4-8.2-1.1c-0.7-0.4-1.5-1.1-2.1,0c-2.1,4.5-3.5,1.4-5.1-0.6c-1.9,3.1,0.4,6.8-2.1,9.5c0.1,0.7,0.6,2,0.4,2.2
		c-1.1,0.7-1.3-0.3-1.3-1.1c-0.1-2.7-0.1-5.5-0.1-8.2C1408.5,186.7,1407.4,179.6,1410.5,172.9z"/>
	<path fill="#95B64D" d="M35.6,119.8c-4,14.8-1,30-2,44.9c-0.3,4.3,1.3,5.3,5.4,5.2c11-0.2,22,0.1,33-0.2c4-0.1,6,1,5.6,5.2
		c-0.1,1.5,0.1,3,0.1,4.5c0,72.3,0,144.6,0,216.9c0,7.3,0,7.3,7.4,7.3c18.2,0,36.3,0,54.5,0c2.9,0,5.5-0.3,7.9-2
		c0.6,2.3-0.6,2.9-2.7,2.9c-21.8,0-43.7-0.1-65.5-0.1c-2.5,0-3.7-0.9-3.5-3.6c0.1-1,0-2,0-3c0-73.6-0.1-147.3,0.1-220.9
		c0-5.2-1.4-6.4-6.4-6.2c-10.6,0.4-21.3,0-32,0.2c-3.5,0.1-5-0.7-4.9-4.7c0.2-14.2,0-28.3,0.1-42.5
		C32.8,122.2,31.7,119.2,35.6,119.8z"/>
	<path fill="#8DB243" d="M751.5,121.9c0-0.7,0-1.4,0-2.1c7.2-0.6,7.2-0.6,7.2,6.5c0,90.7,0,181.4,0,272.1c0,6.6,0,6.6-6.4,6.6
		c-16,0-32,0-47.9,0c-2.3,0-5,0.6-4.8-3.2c14.7,3.8,29.7,1.2,44.6,2.1c2.3,0.1,3.4-1.8,5.4-2.1c0.3,0.1,0.6,0.1,0.9,0.2
		c3.9,0.8,5.6-1,5.6-4.8c0-1.5,0-3,0-4.5c0-86.3,0-172.7,0-259c0-2.6,0.9-5.4-1.2-7.6C753.6,124.8,750.3,125.2,751.5,121.9z"/>
	<path fill="#6E3519" d="M1595.5,139.9c-0.7,0-1.3,0-2,0c-1,0.8-2,0.8-3,0c-2.2-0.7-3.1,1.9-5,2c-1.6,1.8-4.4,0.1-6,2
		c-2.7,0-5.3,0-8,0c-2.5,1.4-5.3,0.7-8,1c-3,2.1-5.9,0.8-9.3-0.3c1.5-1.2,4.5,0,4.3-2.9c10.8-2.4,21.7-4.5,32.7-5.9
		c8.6-0.1,16.8-3.5,25.4-3.2c1.5,0,2.7,0.6,3.9,1.3c1.1,1.7,1.1,3.3,0,5C1612.2,140.7,1603.9,141.6,1595.5,139.9z"/>
	<path fill="#92B13C" d="M284.6,289.8c0.3,0,0.5,0,0.8,0c0.1,36.9,0.1,73.9,0.2,110.8c0,2.3-0.7,3.2-3.1,3.2
		c-22.3-0.1-44.6-0.2-66.9-0.3c0.9-2.9,3.3-1.7,5.1-1.7c21-0.1,42-0.1,62.9-0.1c1-1.7,0.5-3.6,0.5-5.4c0-33.7,0-67.5,0-101.2
		C284.1,293.4,283.7,291.6,284.6,289.8z"/>
	<path fill="#91B13C" d="M1049.5,401.8c31.5,0,63,0,94.5,0.1c1.9,0,4.5-1.4,5.5,1.8c-34,0-68,0-102,0c0-0.6,0-1.2,0-1.8
		C1048.2,401.2,1048.8,401.2,1049.5,401.8z"/>
	<path fill="#91B13A" d="M1115.4,121.9c-19.7,0-39.4,0-59.1,0c-2.1,0-4.4,0.6-5.8-1.8c20.6-0.1,41.3-0.1,61.9-0.1
		C1113.8,119.9,1115.8,119.3,1115.4,121.9z"/>
	<path fill="#8DB23F" d="M1569.5,113.9c1.6-2.6,3.7-4.6,6.9-3.9c4.2,0.9,7.9-1.2,11.4-2.4c7.4-2.5,14.7-1.3,22-1.6
		C1596.5,109.5,1583,111.8,1569.5,113.9z"/>
	<path fill="#90B33C" d="M901.5,199.9c0-1.7,0-3.3,0-5c0-8.3,0-8.3,5.2-16.4c1.4,1.8,0.4,3.9,0.9,5.7c-1.5,5.2-3,10.5-4.5,15.7
		c-0.3,0.3-0.7,0.5-1.1,0.4C901.8,200.1,901.7,200,901.5,199.9z"/>
	<path fill="#8FB33B" d="M1197.7,205.9c3.6-0.8,0.4-4.8,4-6.7c-1.1,9.1,2,17.8-3.3,26c-0.9-3.8-1.9-7.6,0.2-11.3
		c1-1.9,1.6-3.4-1.2-4.1C1197.5,208.5,1197.6,207.2,1197.7,205.9z"/>
	<path fill="#A97249" d="M1524.2,394c2.8-0.5,6,0.6,8.4-1.9c0.1-0.1,0.3-0.2,0.5-0.1c5.8,1.6,11.8,1.4,17.6,2.7
		c1.4,0.3,3.2,1.1,4.8,1.1c4.4,0.1,8.9,0.1,13,1.9c-10.9-0.1-21.8-2.3-32.7-1.9c-3.2-1.4-6.5,1.2-9.7-0.4
		C1525.2,395,1524.4,394.9,1524.2,394z"/>
	<path fill="#8EB247" d="M417.5,235.6c1.8,7.8,2.6,15.8,2.1,23.8c-0.1,1.9,0.4,4-2,5.9c0-4.8,0-9.2,0-13.5c0-1.6,0.5-3.5-1.9-3.9
		C415.5,243.6,416.2,239.6,417.5,235.6z"/>
	<path fill="#8EB247" d="M1335.4,295.8c-2.4,0.4-1.9,2.3-1.9,3.9c0,4.4,0,8.7-0.6,13.1c-3.2-9.8-0.5-19.5,0.6-29.2
		C1334.8,287.6,1335.6,291.6,1335.4,295.8z"/>
	<path fill="#8EB43C" d="M673.7,168.6c-0.5,2.8,0.6,5.9-1,8.6c-4.1-3.7-2.6-8.9-4.8-13.1c-1.2-2.4,2.1-2,3.7-2.2
		C672.8,163.9,673.6,166.1,673.7,168.6z"/>
	<path fill="#693A25" d="M1616.4,133.9c-8.6-1.5-16.7,3.9-25.4,1.9c10-2.5,20.2-4.1,30.3-5.7c-0.7,0.6-1.3,1.2-2,1.8
		C1619,133.4,1617.1,132.7,1616.4,133.9z"/>
	<path fill="#743A1D" d="M1789.4,196.9c1.8-0.1,2.1-1.3,2-2.7c-0.1-1.9,0.9-1.7,2.2-1.2c0.5,3,0.5,6,0,9c-4.6,1.4-0.6,5.5-2.6,8
		c-2.9-2.3-1-5.4-1.6-8C1788,200.2,1788.2,198.5,1789.4,196.9z"/>
	<path fill="#773E1E" d="M1475.3,156.5c0.1,0.8-0.9,1.7,0.1,2.4c-5.3,0.3-10.5,5.5-15.9,0.3C1464.8,158.3,1470.1,157.4,1475.3,156.5
		z"/>
	<path fill="#AD754C" d="M1441.3,387.9c6.5-0.1,12.9-1.3,19.4,0.1c0.7,0.2,1.2,1,1.8,1.6C1455.4,389.4,1448.3,389.1,1441.3,387.9z"
		/>
	<path fill="#91B245" d="M1494.4,115.8c-3.5,5.7-9,4-14.1,4.1C1484.8,117.9,1489.5,116.4,1494.4,115.8z"/>
	<path fill="#A3714A" d="M1735.4,306.2c-1.3,0.7-2.6,1.4-3.9,2.1c1.8-6.2,6.5-7,12-6.4C1740.8,303.3,1738.1,304.7,1735.4,306.2z"/>
	<path fill="#8EB43A" d="M901.4,204.8c-5.1-1.2-4.1-4.7-3.5-8.5c2.3,0.4,1.1,3.8,3.6,3.5c0,0,0,0,0,0c0.8,1.4,0.7,2.7,0,4.1
		C901.7,204.3,901.6,204.6,901.4,204.8z"/>
	<path fill="#8FB149" d="M865.6,321.8c-3-0.6-2.3-3-1.8-4.7c0.6-2.3,2.3-0.9,3.6-0.4C867.1,318.6,866.8,320.4,865.6,321.8z"/>
	<path fill="#91B245" d="M1499.5,114.1c-0.3,1.3,0.5,3.1-1.5,3.7c-1.8,0.5-2.5-1.2-3.6-2C1495.9,114.6,1497.6,114.1,1499.5,114.1z"
		/>
	<path fill="#98B759" d="M539.4,152.9c-3.5-3.2-1.2-7.4-1.8-11.1C538.8,145.4,539.5,149.1,539.4,152.9z"/>
	<path fill="#4D3325" d="M1780.9,103.8c-4.9,0-9.8,0-14.7,0C1771.1,102.6,1776,102.2,1780.9,103.8z"/>
	<path fill="#77472E" d="M1439.5,163.9c-2.1,4.2-4.1-0.1-6.2-0.1c2-1,4-1.3,6.2-0.8C1439.5,163.3,1439.5,163.6,1439.5,163.9z"/>
	<path fill="#96B25D" d="M359.6,241.8c1-2.9,3-4.2,6-3.9C364.1,240,362.1,241.2,359.6,241.8z"/>
	<path fill="#94B453" d="M683.4,198.9c-0.5-1.7-5-2-1.7-5C683.2,195.2,683.4,197,683.4,198.9z"/>
	<path fill="#8FB149" d="M867.6,315c-0.1-0.7,0.1-1.5-0.3-1.9c-2.7-3.3-0.4-3.3,2.1-3.2C869.4,311.7,868.7,313.4,867.6,315z"/>
	<path fill="#91B245" d="M1505.5,111.8c0.7,0,1.3,0.1,2,0.1c-1.5,2.6-4,1.9-6.2,1.9c0.2-2.3,2.5-0.7,3.4-1.8
		C1504.9,112,1505.2,112,1505.5,111.8z"/>
	<path fill="#90B42E" d="M423.7,189.9c2,0.3,2.3,1.6,1.5,3.1c-0.5,1.1-1.3,0.3-1.8-0.3C423.5,191.7,423.6,190.8,423.7,189.9z"/>
	<path fill="#91B440" d="M695.4,236.8c-2.2-1.1-1.9-3.2-1.8-5.1C694.7,233.2,695.5,234.9,695.4,236.8z"/>
	<path fill="#91B440" d="M693.4,230.8c-2.3-1.2-1.9-3.3-1.8-5.3C692.8,227.1,693.6,228.8,693.4,230.8z"/>
	<path fill="#8DB23F" d="M901.6,204c0-1.4,0-2.7,0-4.1c0.5,0,1.1,0,1.6,0C902.6,201.2,902.1,202.6,901.6,204z"/>
	<path fill="#643015" d="M1662.3,122.8c1.2,1.4-0.4,1-0.9,1.2c-0.9,0.4-1.8,0.7-2-0.8C1660.4,123,1661.3,122.9,1662.3,122.8z"/>
	<path fill="#91B13C" d="M284.6,289.8c0,35.4,0,70.8,0,106.3c0,1.9,0.8,4-1,5.7c0-35.4,0-70.8,0-106.3
		C283.6,293.6,282.9,291.5,284.6,289.8z"/>
	<path fill="#8DB23F" d="M1349,390.5c-2.8-18.2-5-36.5-7.6-54.8c-1.9-13.3-4-26.6-5.9-39.9c-3-0.8-2.8,1.4-2.9,3.1
		c-0.1,1.6-0.1,3.2-0.1,4.6c-0.1-3.2-0.3-6.8,0.7-10.2c1-3.3,0.9-6.5,0.4-9.8c-1.1-14.8-3.8-29.3-5.8-44
		c-5.4-38.4-10.8-76.7-15.8-115.1c-0.6-4.4-2.3-4.8-6-4.8c-30.2,0.1-60.3,0.2-90.5-0.1c-5.2-0.1-6.4,1.8-7,6.2
		c-1.9,14.8-4,29.7-6.1,44.5c-1.6,11.9-3.2,23.7-4.8,35.6c2.2,1,2.4-0.7,2.8-2.1c0-0.1,0.1-0.2,0.1-0.3c0,0.1,0,0.2,0,0.4
		c-0.3,2.4-0.2,4.9-0.2,7.4c-0.2-0.8-1.1-1-2.9-1.4c-0.3,0.9-0.7,1.8-0.8,2.8c-1.9,13.8-3.8,27.7-5.7,41.5
		c-3.1,21.9-6.2,43.8-9.2,65.6c-3.6,25.8-6.8,51.7-10.7,77.5c-0.8,5.1,0.8,5.8,5.2,5.8c20.8,0,41.6,0.2,62.4,0.6
		c3.8,0.1,4.8-0.9,4.9-4.6c0.6-16,1.6-31.9,2.2-47.9c0.1-4.2,1.7-5.4,5.7-5.2c5.8,0.3,11.7,0.4,17.5,0c4.8-0.4,6.3,1.4,6.5,6
		c0.6,15.6,1.7,31.2,2.2,46.8c0.1,4,1.4,4.9,5.2,4.8c18.6-0.4,37.3-0.5,55.9-0.6C1351.1,402.9,1350.9,403,1349,390.5z M1200.4,203.2
		C1200.2,203.2,1200.3,203.2,1200.4,203.2L1200.4,203.2z M1199,221.8c-0.4-3.2,0.2-5.6,1-8.1c0.2-0.5,0.3-1,0.3-1.4
		C1200.3,215.4,1200.2,218.6,1199,221.8z M1267.7,308.9c-2.5-0.3-5-0.1-7.5-0.1c-12.2,0-12,0-11.1-12.5c1-14.4,1.6-28.9,2.4-43.4
		c1.4-25.9,2.8-51.8,4.1-77.7c0.2-3.3,1.7-3.7,4.5-3.7c3.1,0,5,0.4,5.2,4.1c0.6,13,1.4,25.9,2.1,38.9c1.6,29.7,3.2,59.5,5,89.2
		C1272.5,307.4,1272,309.4,1267.7,308.9z"/>
	<path fill="#8EB04B" d="M1246.5,171.4c-0.8-0.1-0.9-0.8-0.9-1.4c0-0.6,0-1.4,0.9-1.4c0.9,0,0.9,0.8,0.9,1.4
		C1247.4,170.6,1247.4,171.3,1246.5,171.4z"/>
	<path fill="#8EB04B" d="M1247.4,175.9c0,0.6,0,1.4-0.9,1.4c-0.9,0-0.9-0.8-0.9-1.4c0-0.6,0-1.4,0.9-1.4
		C1247.4,174.5,1247.4,175.2,1247.4,175.9z"/>
	<path fill="#8DB23F" d="M573.4,396.2c-4.9-35.2-9.9-70.4-14.8-105.7c-4-29-8.2-57.9-12-86.9c-1.8-13.2-4.3-26.2-5.1-39.5
		c0-3.5,0-7-1.7-10.2c-0.1-0.3-0.2-0.7-0.4-1c-1.7-3.5-0.9-7.5-1.8-11.1c0.3-6-2-11.8-2-17.8c0-3.2-1.1-4.3-4.4-4.3
		c-31.5,0.1-63,0.1-94.4,0c-3,0-3.9,1.1-4.3,4c-1,9.1-2.5,18.1-3.7,27.2c-1.7,13-3.4,26-5.1,39c0.7,1,1.5,2-0.2,2.8
		c-2.7,14.2-4.7,28.5-6,42.9c-0.7,1.9-0.8,4.1-0.3,5.8c1.1,3.8,1.4,7.6,1.4,11.3c0-0.6,0-1.2,0-1.8c-0.1-1.7,0-3.9-2.9-3
		c-0.4,1.8-0.8,3.6-1.1,5.3c-3.7,26.2-7.4,52.4-11.1,78.6c-2,3.5-0.9,7.5-1.8,11.2c-0.2,2.7-0.3,5.3-0.6,7.9
		c-2.2,15.8-4.3,31.6-6.7,47.4c-0.5,3.6,0.2,4.6,3.9,4.6c18.7,0,37.3,0.3,56,0.5c3.8,0,8.6,1.3,11.2-0.5c3.1-2.1,1-7.4,2.1-11.2
		c1.1-1.2,1.1-2.8,1-4.2c-0.5-8.1,1.4-16.1,0.5-24.1c-0.1-1.3-0.3-2.7,0.4-3.9c0-3.3,0.2-6.6,0.1-9.9c-0.2-2.9,1.1-3.6,3.8-3.6
		c8,0.1,16.1-0.1,24.1-0.1c0.8,1.1,1,2.4,1,3.8c1,16.4,2.1,32.9,2.8,49.3c0.2,3.7,1.2,4.7,4.9,4.7c20.5-0.4,41-0.5,61.4-0.7
		C574.2,402.9,574.3,402.9,573.4,396.2z M490,308.9c-4.6-0.3-9.3-0.3-13.9,0c-3.7,0.2-4.4-1.1-4.1-4.6c1-11.7,1.9-23.5,1.7-35.2
		c0.8-7.7,0.2-15.5,1.7-23.2c1.4-23.4,2.8-46.8,4.1-70.2c0.2-2.9,0.4-5,4.1-3.9c0.7,1.7,1.3,1.6,2,0c3.8-0.7,2.9,2.2,3,4.1
		c1.1,18,2.1,36,3.2,54c1.7,8,0.9,16.1,1.7,24.2c-0.3,16.4,1.8,32.8,2.3,49.2C496,308.2,494.4,309.2,490,308.9z M497.6,345.7
		c1.2-1.6-0.4-2.1-1.4-2.9C499,343,500.1,343.7,497.6,345.7z"/>
	<path fill="#94B750" d="M493.5,254.1c-1.3-8-1.7-16.1-1.7-24.2c1.6,3.1,1.9,6.5,1.9,9.9c1.4-0.1,0.6-1.4,2-1.8
		C492.5,243.2,494,248.7,493.5,254.1z"/>
	<path fill="#94B654" d="M475.4,245.9c-0.1,7.8-0.3,15.5-1.7,23.2C473.9,261.3,472.2,253.4,475.4,245.9z"/>
	<path fill="#8FB435" d="M497.5,345.9c-0.2-3.7-4.1-0.9-5.4-3.2c1.6-1.6,3.6-0.8,5.4-0.9c1.5,0,3.7-0.7,3.9,1.7
		C501.6,346.6,499,345.5,497.5,345.9C497.4,345.9,497.5,345.9,497.5,345.9z"/>
	<path fill="#8DB33F" d="M751.5,121.9c0.3,2.7,2.4,1.8,4,2c1.3,1.6,1,3.5,1,5.3c0,89.1,0,178.2,0,267.3c0,2.8,0.5,5.9-3.5,6.6
		c-1,0.2-1.5-0.4-2-1.1c-0.7-2.4-0.4-5-0.4-7.4c0-85.8,0-171.6,0-257.4c0-2.4,0.7-5-1-7.3c0-2.3,0.3-4.7-3.3-2.3
		c-0.9,0.6-2.6,0.3-3.9,0.3c-8.2,0-16.3,0.3-24.5-0.1c-4.9-0.2-6.6,0.9-6.5,6.2c0.3,20.8,0.1,41.6,0.1,62.4c0,14.5,0,29,0,43.5
		c0,3.5-0.7,7.1,3,9.8c2,1.5,1.5,4.8,0.5,7c-0.6,1.3-2.8-1.4-4.2,0c0.8-3.5-3.7-5-3.3-8.4c0.1-1.2,0-2.3,0-3.5
		c0-37.3,0-74.6,0-111.9c0-2.4,0.8-5-1-7.2c-1-1.2,0.1-1.5,1.1-2c2.4-1.2,4.7-2,7.5-2C727.2,122,739.4,121.9,751.5,121.9z"/>
	<path fill="#8DB243" d="M749.5,129.9c3.1,0.6,1.9,3.1,2,4.9c0.1,21.5,0,42.9,0,64.4c0,67.5,0,135.1,0,202.6c-0.7,0.6-1.3,0.6-2,0
		C749.5,311.2,749.5,220.5,749.5,129.9z"/>
	<path fill="#FBFBF7" d="M1483.5,353.7c-4.3-6.1-3.9-9,2.1-13.7l0,0c9.2,0.2,12.3,5.3,7.9,12.9
		C1489.8,356.9,1487.7,357,1483.5,353.7z"/>
	<path fill="#F7F6F2" d="M1490.1,322c4.1,2.4,6.2,5.7,4.2,10.3c-1.9,4.3-5.6,5.2-9.9,3.6c-0.5,0.2-1,0.3-1.5,0
		c-5.6-5.7-4.6-11.2,2.7-14.1l0,0C1487.1,320.6,1488.6,320.4,1490.1,322z"/>
	<path fill="#FBFAF6" d="M1462.7,323.9c0.9-0.8,1.8-1.6,2.7-2.4c1.4-2,3.4-2.1,5.5-1.6c1.5,0.5,2.8,1.3,4,2.3
		c0.6,0.5,1.1,1.1,1.5,1.8c2.3,6.8,0,10.5-7,11.7c-3.7-0.5-6.3-2.5-7.9-6C1459.7,327.4,1460.5,325.5,1462.7,323.9z"/>
	<path fill="#FAFBF8" d="M1487.6,303.8c3.9,0.1,6.9,3.3,6.8,7.1c0,4.3-3.1,7.2-7.4,6.9c-4-0.2-6.7-3.3-6.6-7.3
		C1480.6,306.8,1483.8,303.7,1487.6,303.8z"/>
	<path fill="#FBFBF5" d="M1463.2,305.8c4.1-3.9,8.1-3.5,12.1,0.1c2.7,3.9,2.5,7.2-0.5,10.2c-2.6,2.5-7.3,2.8-10.1,0.6
		C1460.8,313.7,1460.5,311.3,1463.2,305.8z"/>
	<path fill="#FAFAF8" d="M1462.2,290.9c3.4-7,8.1-7.7,13.2-2c1.1,5.7-0.7,9.3-5,10C1465.7,299.6,1462.8,296.8,1462.2,290.9z"/>
	<path fill="#FBFAF8" d="M1481.2,288.8c1.4-1,2.9-2.1,4.3-3.1c1.4-1,2.7-1,4,0.1c1,0.7,2,1.3,3,2c1.8,3.7,2.4,7.4-1.2,10.3
		c-2.6,2.2-5.6,1.9-8.3,0C1479.6,295.7,1479.9,292.3,1481.2,288.8z"/>
	<path fill="#F8FAF9" d="M1473.4,351.7c-3.6,3.1-7.2,2.5-10-0.7c-2.8-3.1-3.2-6.8,0.6-9.9c0.3-0.3,0.3-0.9,0.4-1.4
		c0.7-0.4,1.4-0.7,2.2-0.9c3.3-0.8,5.4,1.4,7.9,2.8l0,0c0.5,2.7-1.9,3.3-3.5,4.4c2.6-0.7,4.4-0.4,4.5,2.7l0,0
		C1474.4,349.5,1474.3,350.9,1473.4,351.7z"/>
	<path fill="#A57149" d="M1463.2,305.8c-2.2,7.6,1.4,12.5,7.9,11c4.3-1,5.7-4.5,4.3-10.9c0.7,0,1.4,0,2.2-0.1
		c2.6,7.3,1.8,9.4-6.1,15.4c-2-0.7-3.9-0.2-5.9,0.4c0.5-2.5-1.2-4-2.7-5.5C1458.4,311.7,1458.5,310.8,1463.2,305.8z"/>
	<path fill="#B06D3A" d="M1471.3,321.2c-0.1-1.1-0.9-2.7,0.6-2.9c6.2-1,5.7-5.6,5.6-10c0-0.8,0-1.6,0-2.4c2.4,0.3,2,2.2,2,3.7
		c0,3.4,0,6.8,0,10.2c-1,1.1-2.6,1.5-3.4,2.8c-0.5,0.4-1.1,0.8-1.8,0.3C1473.3,322.3,1472.3,321.8,1471.3,321.2z"/>
	<path fill="#B06D3A" d="M1490.1,322c-1.5,0-3.1,0-4.6-0.1c3-3.6,9.7-5.1,14.3-2.7C1495.8,319.2,1493.3,321.5,1490.1,322z"/>
	<path fill="#A57149" d="M1485.6,321.9c-6.2,4.4-6.7,7.9-1.8,13.8c-1.8,1.6-3.6,1.5-5.4,0c0.2-4-1.8-8.1,1.1-11.8c1.3,0,2-0.7,2-2
		c0.7-0.6,1.3-0.6,2,0C1484.2,321.8,1484.9,321.9,1485.6,321.9z"/>
	<path fill="#A57149" d="M1469.4,335.7c6.7-2.9,7.8-5.1,5.7-11.8c2.3-1.3,3,0.1,3,2c0,2.1,0.5,4.2,0.2,6.3c-0.1,1.5-1,2.5-2.2,3.3
		c-0.2,0.1-0.5,0.2-0.8,0.3C1473.5,335.8,1471.4,337.5,1469.4,335.7z"/>
	<path fill="#B06C39" d="M1477.5,333.8c0-2.3,0-4.6,0-6.9c0-1.6-0.2-3-2.3-3c-0.3-0.3-0.6-0.7-0.9-1c0.4-0.4,0.8-0.7,1.2-1.1
		c1.3-1.1,2.7-1.1,4,0c0,0.7,0,1.3,0,2c-1.2,3.6,1.4,7.5-1,11c-0.2,0-0.3-0.1-0.5-0.1C1477.7,334.4,1477.5,334.2,1477.5,333.8z"/>
	<path fill="#A77149" d="M1483.5,353.7c3.5,1.4,6.8,1.6,10-0.8c-0.6,4.4-4.1,4.6-7.3,4.8C1483,358,1483.5,355.6,1483.5,353.7z"/>
	<path fill="#B06C39" d="M1478.5,334.8c1.5,1.7,3.5,0.8,5.3,0.9c0.3,0,0.5,0,0.7,0.2c-1.2,1.8,1.5,2.5,1.2,4c0,0,0,0,0,0
		c-3-0.4-5.4-2.8-8.8-1.9c-1,0.3-1.3-1.3-1.4-2.3v0C1476.3,335.1,1477.2,334.3,1478.5,334.8L1478.5,334.8z"/>
	<path fill="#FDF8EE" d="M1475.5,348.8c-1.3-0.9-1.9-3.3-4.2-1.6c-0.8,0.6-1.5,0.1-1.7-0.9c-0.4-1.7,0.4-1.3,1.7-1.3
		c1.5-0.1,2.5-1.8,3.3-3.3C1476.5,343.9,1477.2,346.2,1475.5,348.8z"/>
	<path fill="#B46B32" d="M1459.5,339.8c-0.3,3.8,0.6,7.6-1,12.7c-1.6-5-0.7-8.9-1-12.6C1458.1,339.3,1458.8,339.2,1459.5,339.8z"/>
	<path fill="#934E1E" d="M1750.4,293.9c2.1,0,4.2,0,6.3,0c2.2-0.1,2.8,1.1,2.7,3.1C1756,297,1753.2,295.4,1750.4,293.9z"/>
	<path fill="#A56E48" d="M1459.5,339.8c-0.7,0-1.3,0-2,0c-2.3-0.4-1.6-1.3-0.5-2.5c1-1,2.2-2.1,3.3-1.2
		C1462.2,337.6,1458.8,338.3,1459.5,339.8z"/>
	<path fill="#A0714C" d="M1462.7,323.9c-0.4,1.9-0.8,3.9-1.2,5.8c-2.7-0.3-2.1-2.4-2-4C1459.7,323.7,1461.3,323.8,1462.7,323.9z"/>
	<path fill="#A57149" d="M1466.2,339.7c-0.6,0-1.1,0.1-1.7,0.1c3.4-2.9,6.6-2.8,9,0.1C1471,340.9,1468.6,338.1,1466.2,339.7z"/>
	<path fill="#FDF8EE" d="M1466.2,339.7c2.5-1.9,4.9-0.4,7.3,0.2c0.4,0.6,0.7,1.2,1.1,1.8C1471.5,342.2,1469.3,338.9,1466.2,339.7z"
		/>
	<path fill="#B66B2D" d="M1499.4,329.5c0,0.8,0,1.6-0.8,1.7c-0.9,0.2-1-0.7-1-1.3c-0.1-0.7,0-1.4,0.8-1.6
		C1499.3,328.1,1499.2,329.1,1499.4,329.5z"/>
	<path fill="#B06D3A" d="M1483.5,321.8c-0.7,0-1.3,0-2,0c0.1-1.2-0.3-2.5,0.8-3.6C1484.1,319.2,1483.2,320.6,1483.5,321.8z"/>
	<path fill="#A57149" d="M1479.5,321.8c-1.3,0-2.7,0-4,0c0.3-2.7,2.4-1.8,4-2C1479.5,320.5,1479.5,321.2,1479.5,321.8z"/>
	<path fill="#FDF8EE" d="M1473.4,351.7c0-1.5,0-2.9,2.1-2.9C1475.5,350.3,1474.8,351.3,1473.4,351.7z"/>
	<path fill="#8FB149" d="M867,302.4c0.1,0.5,0.4,1,0.4,1.6c0,0.6-0.1,1.5-1,1.2c-0.4-0.1-0.7-1-0.7-1.5
		C865.6,303,865.7,302.3,867,302.4z"/>
	<path fill="#8BB632" d="M822.4,250.4c1-0.1,1,0.7,1.1,1.3c0.1,0.7,0,1.4-0.8,1.6c-0.9,0.2-1-0.7-1-1.3
		C821.5,251.4,821.7,250.7,822.4,250.4z"/>
	<path fill="#8EB438" d="M82.6,170.4c2.6,5.3-1.2,9.5-1.2,14.2c0.2,70.3,0.2,140.6,0.1,210.9c0,1.9,0.4,3.9-0.6,5.9
		c-1.8-1-1.3-2.4-1.3-3.6c0-73.6,0-147.3-0.1-220.9C79.6,174.3,80.1,172.1,82.6,170.4z"/>
	<path fill="#8CB338" d="M1049.5,401.8c-0.7,0-1.3,0-2,0c0-11.7,0-23.3,0-35c0-11.8,0-23.6,0-35.5c0-11.7,0-23.3,0-35s0-23.3,0-35
		c0-11.7,0-23.3,0-35c0-11.8,0-23.6,0-35.5c0-11.7,0-23.3,0-35c0-11.2,0.3-22.3-0.9-33.5c1,0,1.9,0,2.9,0
		C1049.5,215.6,1049.5,308.7,1049.5,401.8z"/>
	<path fill="#894524" d="M1409.5,200.9c0-2.7-0.1-5.3,0-8c0.1-1.5-0.7-3.7,1.9-3.8c2.3-0.2,1.8,1.8,2.2,3.2c0.1,0.4,0.5,0.7,0.7,1.2
		c2.2-1.2,0.3-3.6,2.2-5.1c4.6,7.5,13.6,0.6,19.4,5.6c-0.9,1.5-2.2,2.3-3.7,1.7c-1.5-0.6-4.3-1.6-4.2-0.8c0.4,2.3-2,5.5,1.4,7.1
		c1.2,1.3,1,2.7,0,4c0.4,1.3,2.4,2.2,0.9,3.9c-0.2,0.3-0.9,0.4-1.3,0.3c-1.7-0.5-1.5-2.3-1.3-3.3c0.4-2-1-2.5-2-3.6
		c-0.9-1,0.1-2.7-1.4-3.9c-2.3,3,0.2,7-2,10.6c-1.9-3.3-0.2-6.6-2.2-10.8c0,7.2-4.6,6.4-8.3,7
		C1410.6,204.6,1412.9,201.4,1409.5,200.9z"/>
	<path fill="#8C4624" d="M1445.7,199.9c1.2,3.8,2.4,0.6,3.6,0c1.3,0.4,2,1.6,3,2.4c4.1,3.5,7.7,2.3,8.9-2.9c0.3-1.2,0.1-2.6,1.4-3.5
		c3.3,0.1-0.1,3.3,1.9,4c2.2,2.1,4.8,3,7.7,3.9c4.3,1.2,7.9,3.8,10.8,7.3c0.2,0.8,0.1,1.5-0.4,2.1c-0.7,0.4-1.4,0.3-2.1-0.2
		c-0.7-1.1-1.4,0-2.2,0c-2.7,0.6-4.6-1.5-7-2.1c-1.9-1.2-3.4-1.6-3.6,1.4c-1.5,2-1.1,4.7-2.3,6.8c-1.4,0.2-2.5-0.6-2.6-1.7
		c-0.2-4.8-3.3-4.4-6.5-4c-1.4,0.1-2.8,0.8-4.1-0.5c-1.6-2.1-2.2-5.8-6.3-3.4c-0.7,0.4-2.4-0.9-2.5-2.5
		C1443.2,204.2,1443.8,201.8,1445.7,199.9z"/>
	<path fill="#FCFBFA" d="M1529.4,205c0.6,1,1.2,1.9,1.9,2.9c1.1,4.9-0.3,8.7-4.8,11.1c-2.8,0.3-5.5,0.2-8-1.2c-4.6-3.7-5-5-3-10
		c1.6-5,6-4.6,10-5C1526.8,203.5,1528.9,202.9,1529.4,205z"/>
	<path fill="#FAFBF9" d="M1502.7,206c0.3,0.1,0.6,0,0.8-0.3c2-0.4,4.1-0.7,6.2-0.6c1.6,0.9,2.8,2.2,3.8,3.7l0,0c1.8,3,3,6.1-0.3,8.9
		c-5.4,4.4-10,4.1-13.9-0.9c-1.4-1-1.8-2.5-2-4.1C1497.4,209.1,1498.9,206.7,1502.7,206z"/>
	<path fill="#FAFAF7" d="M1482.3,212.9c0.1-0.6,0.2-1.3,0.3-1.9c1.8-4.5,7.9-6,12.1-2.8c1.1,0.8,1.9,1.8,2.4,3
		c0.8,3.2,1.4,6.3-1.8,8.7c-4.3,4.2-8.5,3.6-13.1-2C1481.8,216.2,1481.7,214.5,1482.3,212.9z"/>
	<path fill="#FBFBFA" d="M1465.5,218.8c-0.4-2.7-0.6-5.3,1.9-7.2c0.8-1.8,2.7-1.3,4-1.8c2.6,0.3,4.7,1.8,6.9,3
		c0.1,0.6,0.2,1.3,0.3,1.9c1.6,1.4,1.6,3.2,0.9,5c-2.2,4-5.8,4.6-10,4C1467.5,222.8,1465.6,221.5,1465.5,218.8z"/>
	<path fill="#FBFBF8" d="M1481.3,269.8c3-3.5,6.5-1.9,10-0.9c4.3,3.6,4.4,7.1,0.1,10.8c-0.6,0.4-1.2,0.8-1.8,1.2
		c-1.6,1.3-3.2,0.8-4.9,0.3C1479.1,278.9,1478.2,275.6,1481.3,269.8z"/>
	<path fill="#FBFBF8" d="M1452.3,212.8c1.3-0.3,2.7-0.6,4-0.9c7.3,1.7,9.3,6.8,4.7,11.8c-3.6,2.6-7.4,3.3-10.4-0.5
		C1447.6,219.5,1449.1,215.9,1452.3,212.8z"/>
	<path fill="#F7F5F2" d="M1462.7,255.5c0.3-3.7,3.4-6.2,7.2-6c3.8,0.3,6.2,3.2,5.8,7.2c-0.4,4-3,5.8-6.7,5.8
		C1465.3,262.5,1462.4,259,1462.7,255.5z"/>
	<path fill="#8B4D2D" d="M1481.3,269.8c-1.9,4.6-1.5,8.5,3.2,11.2c0.3,0.2,0.5,0.4,0.3,0.6c-0.1,0.2-0.2,0.3-0.3,0.3
		c-1.1,0-2.3,0-3.1,1.1c-0.7,0.9-1.7,1.1-2.6,0.4c-1.5-1.1,0.1-1.5,0.6-2.1c1.4-1.7-0.1-3.4-0.7-4.4c-1.2-1.9-2,1.3-3.4,0.9
		c-1.2-1.2-1-2.8-1.2-4.2c-0.4-3.6-2.7-4.8-6-4.2c-3.1,0.6-4.6,2.7-4,5.8c0.6,3,3.9,4.8,6.9,3.9c1.4-0.4,2.6-1.6,4.2-1.3
		c-1.3,3.7-5.9,5.8-9.8,4.6c-3.7-1.2-5.8-5.1-4.7-8.7c2.3-7.5,5-9.1,12.7-7.7c1.6,0.3,2.1,1.3,2.5,2.6c0.5,1.6,1.2,3.2,1.8,4.8
		C1479.9,272.7,1479,269.8,1481.3,269.8z"/>
	<path fill="#FCFAF7" d="M1489.4,250c3.8,3.7,4.5,7.8,1.8,10.7c-2.5,2.7-6.6,2.8-9.3,0.3c-3.6-3.3-2.6-7.6,2.5-11.3
		C1486.2,249.2,1487.9,248.5,1489.4,250z"/>
	<path fill="#FBFDFD" d="M1481.5,242.8c-3.2-5.1-1.5-10.4,3.6-11c3.1-0.4,5.7,0.6,6.9,3.6c1.5,3.9-0.1,6.7-3.5,8.7
		C1485.9,244.8,1483.3,246,1481.5,242.8z"/>
	<path fill="#FBFAF7" d="M1445.3,221.2c-0.3,3.4-2.1,5.9-6.2,6c-3.9,0.1-6.4-1.8-6.6-5.8c-0.2-3.8,1.7-6.3,5.7-6.6
		C1442.1,214.4,1445.1,217.1,1445.3,221.2z"/>
	<path fill="#F3EFEB" d="M1445.7,199.9c0.3,2.7-0.6,5-2.2,7c-7.4,2.9-10.6,0.3-10.1-8C1438.2,193.9,1441.6,194.1,1445.7,199.9z"/>
	<path fill="#F9FBF8" d="M1468.9,231.7c4.4,0,6.7,2,6.8,6c0.1,4-2,6.3-6,6.4c-4,0.1-6.3-1.9-6.4-6
		C1463.1,234.1,1465.2,232,1468.9,231.7z"/>
	<path fill="#894C2C" d="M1461,223.7c2.7-6.4,1.7-8.9-4.7-11.8c1.1,0,2.3-0.2,3.4,0c2.1,0.4,5.2-0.1,3.9,3.9c-0.4,1.3,0.6,2.4,1.9,3
		c1.4,1.7,2.7,3.3,4.1,5c-0.6,0-1.6,0.3-1.9,0C1465.5,221,1463.2,223,1461,223.7z"/>
	<path fill="#8A4C2E" d="M1481.5,242.8c2.1,1.5,4.5,1.4,6.9,1.3c-2,2.4,0.1,4,1,5.9c-1.6-0.1-3.3-0.2-4.9-0.3
		c0.6-0.9,2.2-1.2,1.8-2.6c-0.4-1.6-1.7-1-2.8-0.8c-1.6,0.3-2.7-0.9-4-1.4c0,0,0,0,0,0C1480.1,244.2,1480.8,243.5,1481.5,242.8z"/>
	<path fill="#8B4C31" d="M1491.3,279.8c2.9-3.6,2.8-7.2-0.1-10.8c2.9-1,4.4,1,4,3.1C1494.7,274.9,1497.5,279.8,1491.3,279.8z"/>
	<path fill="#8B4C33" d="M1513.3,217.8c1.3-2.9,1.5-5.9,0.3-8.9c0.7-0.3,1.3-0.7,2-1c-0.5,3.8,0.1,7.2,3,10
		C1516.7,217.8,1515,217.8,1513.3,217.8z"/>
	<path fill="#904518" d="M1429.5,205.9c0-1.3,0-2.7,0-4c0.2-1.1-0.6-2.7,0.8-3.4c1-0.5,1,0.7,1.2,1.4
		C1431.6,202.1,1433,204.8,1429.5,205.9z"/>
	<path fill="#8A4C2E" d="M1479.5,244.8c0.9,2.4-0.2,3.1-2.5,3.3c-1.7,0.1-1.5-0.8-1.5-1.8C1475.7,242.9,1478.5,246.3,1479.5,244.8
		L1479.5,244.8z"/>
	<path fill="#8F5A41" d="M1495.4,219.8c1.6-2.5,1.9-5.2,1.1-8c1.1-0.5,1.4,0.5,1.9,1c0.3,1.3,0.6,2.7,0.8,4
		C1497.6,217.3,1497.6,220,1495.4,219.8z"/>
	<path fill="#8B4C31" d="M1484.5,281.8c0-0.3,0-0.6,0-0.8c1.7,0,3.3,0,5,0c0,1.3,0,2.5,0,3.8c-2.3,1.3-3-0.7-4-2
		C1485.1,282.5,1484.8,282.2,1484.5,281.8z"/>
	<path fill="#944717" d="M1494.1,251.1c1.5-1.6,3.1-1.4,5.1-0.6C1497.5,252.7,1495.7,251.5,1494.1,251.1z"/>
	<path fill="#8B4D2D" d="M1485.5,282.8c1.4,0.6,2.2,2.1,4,2c0,0.3,0,0.7,0,1c-1.3,0-2.7-0.1-4-0.1
		C1485.5,284.8,1485.5,283.8,1485.5,282.8z"/>
	<path fill="#894524" d="M1757.5,253.8c-0.3,1.5,0.5,3-0.6,4.3C1756.1,256,1756.1,256,1757.5,253.8z"/>
	<path fill="#8B5138" d="M1482.3,212.9c0,1.7,0,3.3,0,5c-0.6-1.7-1.2-3.3-1.8-5C1481.1,212.9,1481.7,212.9,1482.3,212.9z"/>
	<path fill="#8B5138" d="M1479.5,219.8c0.1-1.7,0.3-3.5-0.9-5C1481.6,216.1,1480.8,217.9,1479.5,219.8z"/>
	<path fill="#763B1D" d="M1789.4,196.9c0,1.7,0,3.3,0,5c-1.7,5.1-5.7,5.7-10.2,5c-3.9-0.6-8.4,1.5-11.4-3.1c-1-1.5-4.2-2.4-5.3-1.4
		c-2.9,2.5-4.7,0.5-7.1-0.4c-4.3-1.7-8.9-1.4-13.3-0.9c-10,1.1-19-2.3-28.3-5.2c-4.3-1.3-9.1-3.8-13.8-0.4c-0.5,0.3-1.6,0.5-1.9,0.2
		c-3.4-3.6-8.8-0.6-12.3-3.9c-1.2-1.1-2.7-0.5-3.7,0.3c-3.4,2.9-5.1,0.9-6.2-2.1c-1.5-4.1-3.9-4.7-7.8-3.3c-3.7,1.4-7.8,0.8-11.7,2
		c-3.5,1.1-7.6,0.6-10.6-2.7c-1.5-1.6-3.7-2.4-5.9-2.1c-5.1,0.6-10.1-0.9-15.3-0.3c-4,0.5-8.5-0.9-12.3-2.6
		c-5.3-2.3-10.5-3.8-16.2-2.3c-0.8,0.2-1.8,0.3-2.5,0c-7.2-3.9-15-1.6-22.6-2.1c-1.6-0.1-3.2-0.1-4.2-1.1c-6.1-6.8-14.3-5.6-22-5.8
		c-5.3-0.1-10.5-0.5-15.5-2.3c-0.5-0.2-1.1-0.6-1.4-0.4c-6.8,3.5-13.1-1.9-19.8-1.2c-1.1,0.1-2.4,0-3.4-0.4
		c-1.2-0.5-2.6-1.4-2.6-2.8c0-1.4,2.3-0.2,2.6-2c-1.6-1.4-3.6-0.5-5.5-0.7c2.5-2.7,7.6-2.9,10.5-0.4c1.6,1.4,3.1,2.8,5.5,2.4
		c1.6-2,4.5,0,6-2c11.4,1.4,22.9,1.8,34.1,4.5c7,1.7,14.1,3.3,21.1,5.1c1.2,0.3,2.2-0.1,3.4-0.2c3.8-0.5,7.5-0.9,11.2,0.9
		c4.6,2.2,9.8,0.2,14.7,1.6c7.9,2.1,16.3,1.6,24.2,3.9c1.5,0.4,3,0.3,4.4-0.2c1.8-0.7,3.7-0.8,5.3,0.2c6.5,4.1,13.9,3.5,21.1,4.3
		c2.7,0.3,5.2,1.4,7.4,2.3c9.3,3.8,19.2,1.1,28.6,3.9c6.1,1.8,12.8-0.4,19,1.9c6.6,2.4,13.8,1.9,20.4,3.4c9.7,2.3,20,1.7,28.9,5.1
		c6.7,2.6,13.2,1.3,19.5,3c2.1,0.6,2.7-0.4,2.8-2.2c0-1.5-0.2-3.1,2-3.4C1789.4,194.9,1789.4,195.9,1789.4,196.9z"/>
	<path fill="#7D3E20" d="M1787.4,225.9c-6,0.5-11.5-1.6-17.1-3.3c-2.7-0.8-5.5-1.6-8.2-1.4c-9.2,0.4-17.8-3-27-3
		c-9.2,0-18.3-2.5-26.8-6.2c-2.3-1-4.4-0.6-6.1-0.4c-5.5,0.6-10.7-1-16-1.6c-4.2-0.4-8.5,0.3-12.6-1.9c-1.7-0.9-3.9-1.1-6.2-0.5
		c-2.6,0.7-5.3,0.3-8.2-0.9c-3.2-1.3-6.7-2.1-10.5-2c-6.1,0.2-12.1-1.6-18.2-2.3c-4.3-0.5-9-1-12.7-2.1c-6.2-1.7-12.5-1.8-18.7-3
		c-6.7-1.3-12.9-4.9-20.6-2.3c-3.3,1.1-8.2-2.4-12.3-3.9c-4.3-1.5-8.7-1.6-13.1-1c-3.2,0.4-6.2,0-9-1.4c-2.3-1.2-4.1-0.8-5.6,1.2
		c-0.3,0.4-0.7,0.4-1,0c-1.1-1.3-2.4-1.3-3,0.3c-0.8,2.1-3,2.9-4,4.7c-0.3-0.3-0.7-0.7-1-1c1.3-4.3,1.3-8.7,0-13
		c2.5-5,5.9-1.4,8-0.1c5.7,3.5,11.9,0.4,17.5,2.1c8.3,2.5,17.1,1.2,25.3,3.8c4.5,1.4,9,2.6,14.1,1.4c4.8-1.1,10,0,14.5,2.1
		c2.5,1.2,4.9,1.9,7.7,1.7c0.8-0.1,2.1-0.3,2.4,0.1c3.9,4.6,8.7,1.8,13.2,1.8c5.2,0.1,10,1.3,15,2.4c8.2,1.9,16.2,4.9,24.7,5.7
		c10,0.9,20.1-0.6,29.9,2c6.4,1.7,13.1,1.5,19.2,3.9c4.2,1.7,9,0.4,13.2,2c6.4,2.3,13.2,2.8,19.8,3.4c9.6,1,19.1,3.4,28.8,3.6
		c2.5,0.1,4.3-0.6,6.5-2.4c0,3.8,0,7.5,0,11.3c0,0,0,0,0,0C1788.8,226.4,1788.1,226.4,1787.4,225.9z"/>
	<path fill="#824020" d="M1471.5,188.8c-3.5-2.5-6.4-5.7-11.7-5.1c-6.5,0.8-13.3-0.8-19.6,0.4c-7.5,1.5-12.8-3.4-19.4-4.3
		c-2.7-0.4-1.4-2.4-1.3-3.9c3,0,6,0,9,0c2.3,1.5,4.7,1.5,7,0c7.7,1.3,15.4,2.9,24.3,1.7c-2.5,3.7-5.9,1.1-8.4,4.1
		c5.7-0.3,10.8,2.2,15.4-2c1.4-1.3,2-1.7,3,0.6c1,2.4,2.4,4.5,6.1,2.6c3-1.5,5.2,1.9,8.4,3.7c-1-3.9-0.7-6.1,3.1-8
		c2.8-1.4,2.7,1.7,4.3,1.2c0.5,1.4-0.9,1.2-1.4,1.7c0.7-0.2,1.5-0.3,2.2-0.3c0.5,0,0.9,0.3,1.2,0.6c1.9-1.5,4.9-1.3,6-4
		c2.1,0.5,3.4,1.9,4,4c-0.4,1.1-0.9,2.2-1.3,3.4c-0.7,1.3-1.5,2.5-2.4,3.7c-1.2,0.7-2.5,0.6-3.8,0.6c-7-3.5-7-3.5-13.3,2.7
		c-1.5,0.4-2.7-0.1-3.9-0.9c-0.4-2.8-2.2-2.2-4-1.5C1473.5,189.9,1472.3,189.9,1471.5,188.8z"/>
	<path fill="#FAF8F6" d="M1529.5,180.9c3.6,5.3,3.6,7.7,0,13c-4,2-7.9,2.7-11.3-0.9c-3.2-3.4-2.3-7.2-0.7-11
		C1521.2,178.7,1525.2,178.4,1529.5,180.9z"/>
	<path fill="#773E1E" d="M1481.5,158.9c2.7-4.3,6.7-2.5,11.2-2.1c-2.4,1.3-3.7,3.3-6.2,3.1c-2.8-1.4-4.3,3.8-7.4,1.4
		C1478.6,159.4,1481.2,160.2,1481.5,158.9z"/>
	<path fill="#7F4832" d="M1501.4,184.7c0-1.4,0.2-2.7,2-2.8c1.3,0,2-0.7,2-2c1.3-1.1,2.7-1.1,4,0c1.6,0.1,1.6,3.4,4,2
		c0.9,0.9,0.9,1.9,0.2,2.9l-0.3,0.2C1509.3,184.1,1505.4,184.6,1501.4,184.7z"/>
	<path fill="#80401A" d="M1513.6,184.8c-0.1-1-0.1-2-0.2-2.9c0.2-1.8,1.7-2.6,2.9-3.6c1.5,0.9,0.1,2.5,0.9,3.5
		c-1.2,0.3-1.8,1-1.8,2.3C1515.4,185.5,1514.6,185.3,1513.6,184.8z"/>
	<path fill="#873A11" d="M1509.5,179.9c-1.3,0-2.7,0-4,0c0.1-1.1,0.5-1.9,1.7-1.9C1508.6,177.9,1509.4,178.5,1509.5,179.9z"/>
	<path fill="#6D351A" d="M1595.5,139.9c0.9-3.2,3.6-2.4,5.2-1.5c4,2.1,7.6,2.1,11.6,0c2.5-1.3,5.5-0.9,8.2,0.5
		c0.9,1.9,2.8,3,4.4,2.8c7.3-0.9,14,2.7,21.1,2.1c5.3-0.4,10.2,1.1,15.2,2c0.8,0.2,1.7,0.2,2,1.1c1.3,3.3,2.3,3.5,4.4,0.3
		c1.5-2.3,4.3-2.6,5.8,0.5c1.5,3.2,3.7,3.3,6.5,2.1c3.4-1.3,6.8-2.2,9.3,1.6c0.3,0.5,1.1,1,1.6,0.9c7.5-1.8,14.4,3,22,1.6
		c4.8-0.9,9.8,0.8,14.8-0.1c0.8-0.1,1.7,0,2.4,0.4c7.9,3.7,16.7,3.6,25,6c1.5,0.4,2.8,0.4,4.4,0.2c3-0.5,5.8-0.3,7.1,3.4
		c0.9,2.8,3.3,3,4.7,0.6c2.3-3.9,4.9-2.9,8-1.5c1.6,0.8,3.4,1.6,5.1,1.7c6,0.4,6,0.3,4.1,6.1c0.2,2-0.5,2.4-2.6,2
		c-7-1.2-14.3-1.2-20.9-3.3c-5.7-1.9-11.8-2.7-17.1-2.8c-5.9-0.1-10.7-5.4-17.2-2.6c-1.9,0.8-6.1-1.1-8.7-1.9
		c-7.4-2.1-15.1-1.4-22.2-3.8c-2.2-0.7-4.3-0.9-6.3-0.6c-5.7,0.7-10.9-0.9-16.3-1.9c-7-1.3-14.1-3.7-21.1-3.9
		c-12.9-0.4-25.3-5.2-38.3-4.3c-3.5-3.9-8.4-0.9-12.1-2.3c-3.4-1.2-6.6-1.7-10-1.7C1595.5,142.6,1595.5,141.2,1595.5,139.9z"/>
	<path fill="#643015" d="M1659.4,127.9c-2.1-0.6-1.5-1.3,0-1.8c3.2-1.3,6.4-0.1,9.6-0.2c2.1,0,4.3,0,6.4,0c0,0,0,0,0,0
		c-0.1,0.3-0.1,0.9-0.3,0.9c-5.1,1-10.2,2.8-15.5,2C1659.6,128.8,1659.5,128.2,1659.4,127.9c0.2-0.2,0.5-0.4,0.8-0.4
		c0.6-0.1,1.2,0,1.8-0.1c-0.4,0-0.9,0-1.3,0C1660.3,127.4,1659.8,127.5,1659.4,127.9z"/>
	<path fill="#643015" d="M1651.3,124.8c1.6,0.3,3.1,0.8,4.7,2.4c-2,0.4-3.8-0.3-5.8,1.1C1650.8,126.7,1651.1,125.8,1651.3,124.8
		C1651.4,124.8,1651.3,124.8,1651.3,124.8z"/>
	<path fill="#6D351A" d="M1616.4,133.9c-1.2-3.9,2.9,0.1,3-2c0.3,0.7,0.7,1.3,1,2C1619.1,133.9,1617.8,133.9,1616.4,133.9z"/>
	<path fill="#743A1D" d="M1522.5,151.6c3.1-4,7.5-2,11.3-2.7C1530.1,150.3,1525.9,149.6,1522.5,151.6z"/>
	<path fill="#6D351A" d="M1563.5,144.9c2.5-2,5.3-0.6,8-1c0,0.3,0,0.7,0,1C1568.8,145.5,1566.1,146.7,1563.5,144.9z"/>
	<path fill="#834222" d="M1766.4,242.8c1.3-0.5,2.8-1.6,3,1C1768.1,244.4,1766.7,245.5,1766.4,242.8z"/>
	<path fill="#864526" d="M1478.7,190.7c1.3,0.4,2.5,0.8,3.8,1.2c0.5,0.4,0.8,1,1.1,1.6c3.5,7.4,8,7.7,12.9,1
		c0.8-1.1,1.1-2.8,2.9-2.8c1.5,1.5,3.7,2.5,2.8,5.2c-2.6,3.2-1.2,6.2,0.5,9.1c-2.1,1.9-4.5,3.5-4.2,6.9c-0.6-0.3-1.3-0.7-1.9-1
		c-4.6-5.4-9.2-5.7-13.9-0.9c-3.5-0.5-4.8-4.6-8.4-5.1c-2.3-0.3-3.9-2.4-6.9-1.8c-2.5,0.6-1.8-2.8-2.9-4.2c0.3-1,0.7-2,1-3.1
		c1.9-0.2,2,1.6,2.9,2.6c1.9,3,4.8,2.9,7.4,1.5c3.7-2,3.8-5.4,2.4-9C1478.1,191.4,1478.3,191,1478.7,190.7z"/>
	<path fill="#FCFBFA" d="M1502.2,196.9c-1-1.7-2-3.3-2.9-5c-0.8-1-0.8-2,0-3.1c0.3-1.6,1-3,2.2-4.2c4-3,8-2.7,11.9,0.4
		c1.8,3.6,2.6,7.3-0.6,10.6C1509.6,198.7,1506,198.6,1502.2,196.9z"/>
	<path fill="#864526" d="M1510.3,205.9c-2.3-0.1-4.5-0.1-6.8-0.2c-0.2-1.3,4.7,0.2,1.7-3c-0.3-0.3,0.1-2,1.1-2.5
		c0.9-0.4,1.6,0.4,2.1,1.1c1.1,1.4,2.1,3,3.1,4.5C1511.1,206.3,1510.7,206.3,1510.3,205.9z"/>
	<path fill="#894524" d="M1529.4,205c-1.3-0.7-2.6-1.4-3.9-2.2c1.8-0.5,4.2-3.8,5,1C1530.1,204.2,1529.7,204.6,1529.4,205z"/>
	<path fill="#8B4C33" d="M1510.3,205.9c0.4,0,0.8-0.1,1.2-0.1c1.9,0.2,2.1,1.5,2,3C1512.4,207.8,1511.4,206.9,1510.3,205.9z"/>
	<path fill="#793D1F" d="M1787.4,225.9c0.7,0,1.3,0,2,0c-0.2,0.8,0.5,2.1-0.8,2.2C1787.6,228,1787.5,226.8,1787.4,225.9z"/>
	<path fill="#834222" d="M1537.5,189.9c0.3,0,0.7,0,1,0c-0.3,0.8,0.6,2.4-0.9,2.1C1536.5,191.9,1536.4,190.7,1537.5,189.9z"/>
	<path fill="#793D1F" d="M1521.5,159.9c0.3,1,0.7,2-1,2c-1.7,0-3.3,0-5,0C1516.5,158.3,1519.5,160.6,1521.5,159.9z"/>
	<path fill="#6D351A" d="M1595.4,144.2c-2.6,2.6-5.5,1.8-8.3,0.7C1589.7,143.3,1592.7,144.3,1595.4,144.2z"/>
	<path fill="#6D351A" d="M1579.5,143.9c1-3.6,4-1.3,6-2C1584.4,145.5,1581.5,143.2,1579.5,143.9z"/>
	<path fill="#6D351A" d="M1590.5,139.9c1,0,2,0,3,0c-0.1,1-0.4,2-1.7,1.8C1590.7,141.6,1590.6,140.7,1590.5,139.9z"/>
	<path fill="#91B245" d="M1508.8,116.8c-2.2,1.6-4.4,1-6.7,0.4C1504.2,115.4,1506.5,115.9,1508.8,116.8z"/>
	<path fill="#834222" d="M1435.5,175.9c-2.6,2.8-4.4,2.8-7,0C1430.8,175.9,1433.1,175.9,1435.5,175.9z"/>
	<path fill="#793D1F" d="M1493.5,181.9c-1.2,0-2.5,0-3.7,0c-0.3-1.5,1.6-0.9,1.7-2C1492.8,179.9,1493.4,180.6,1493.5,181.9z"/>
	<path fill="#FAF9F6" d="M1462.6,195.9c0.2,3,0.7,6-2,8.2c-4,3.2-8.3,1.7-11.2-4.2c0.1-3.4,1.3-6.1,4.8-7.3
		C1457.8,191.2,1460.4,193.2,1462.6,195.9z"/>
	<path fill="#FBFCFC" d="M1467.5,199.8c-0.7-1-1.4-2-2-3c-0.2-2,0.4-3.6,2-4.9c2.2-1.4,4.5-2.4,7.1-2.5c0.5,0,0.8,0.2,1.2,0.5
		c5.2,5.3,5.3,6.9,1.1,10.9C1473.2,204.2,1470.5,201.4,1467.5,199.8z"/>
	<path fill="#8A401B" d="M1465.3,189.4c0,2-0.9,2.4-2.2,2.4c-1.6,0-3.2-0.2-3.4-2.1c-0.2-2,1.5-1.8,2.8-1.8
		C1463.9,187.8,1465.3,188,1465.3,189.4z"/>
	<path fill="#FCF5EB" d="M1475.6,189.7c-3-0.1-5,3-8.2,2.2c0.3-2.4,2.3-2.5,4-3.1c1.3,0,2.7,0.1,4,0.1
		C1475.8,189.1,1475.8,189.4,1475.6,189.7z"/>
	<path fill="#8DB23F" d="M749.5,401.8c0.7,0,1.3,0,2,0c2.7,1.6,3.6-0.1,3.9-2.3c0.2-1.5,0.1-3,0.1-4.5c0-90.4,0-180.7,0-271.1
		c3.1,0.6,1.9,3.1,2,4.9c0.1,21.7,0,43.3,0,65c0,67.6,0,135.2,0,202.9c0,5.9-2.2,8.2-6.6,7.1C749.9,403.4,749.7,402.6,749.5,401.8z"
		/>
	<path fill="#AD6D3D" d="M1478.5,334.8c-1,0.3-2,0.7-3,1c0-1.3,0.7-2,2-2C1477.8,334.1,1478.1,334.5,1478.5,334.8z"/>
	<path fill="#894C2C" d="M1471.5,209.9c-1.3,0.6-2.7,1.2-4,1.8C1467.1,207.3,1469,207.9,1471.5,209.9z"/>
	<path fill="#FAFAF6" d="M1475.3,277.7c-2,1.8-4.1,3.6-7,3c-3.6-0.8-6-3.1-5.7-7c0.3-4.1,2.7-6.3,6.9-6.2c4.1,0.1,6.1,2.3,6.2,6.2
		C1475.7,275.1,1475.4,276.4,1475.3,277.7C1475.3,277.7,1475.3,277.7,1475.3,277.7z"/>
	<path fill="#793D1F" d="M1533.7,179.5c0.2,0.6,0.6,1.2,0.7,1.8c0.1,0.4-0.2,1.2-0.8,0.5c-0.4-0.4-0.5-1.2-0.8-1.8
		C1532.8,180,1533.2,179.8,1533.7,179.5z"/>
	<path fill="#FBF9F7" d="M1497.6,194.8c-1.6,3.9-4.3,6.3-8.6,5.6c-4.7-0.8-6.2-4.2-6.4-8.5c3.4-7.2,7.8-8.2,14-3
		C1499.3,190.4,1497.8,192.8,1497.6,194.8z"/>
	<path fill="#8D4528" d="M1497.6,194.8c0.1-2.1-0.3-4.1-1.1-6c0.9-0.5,1.8-0.8,2.7,0c0,1,0,2.1,0,3.1
		C1498.7,192.9,1498.2,193.9,1497.6,194.8z"/>
	<path fill="#864526" d="M1475.6,189.7c0-0.3-0.1-0.5-0.2-0.8c0.8-1.9,1.7-1.5,3.2-0.6c1.7,1,0.4,1.6,0.1,2.4c0,0-0.3,0.1-0.3,0.1
		C1477.1,191.5,1476.3,190.7,1475.6,189.7L1475.6,189.7z"/>
	<path fill="#693318" d="M1659.4,127.9c1.1-1.3,2.5-1.2,4.1-0.6C1662.2,128.4,1660.7,127.7,1659.4,127.9L1659.4,127.9z"/>
	<path fill="#FCF5EB" d="M1475.6,189.7c0.9,0.4,1.9,0.8,2.8,1.2c2,3,2.8,6,0.6,9.2c-1.9,2.8-4.8,3-7.9,2.9c-2.4-0.1-3-1.4-3.6-3.1
		c1.1,0.2,2.6,0,3.3,0.6c4.5,3.5,6-0.9,7.5-3.2c1.9-2.9-0.7-4.3-3-5.3c-0.6-0.2-1.4-0.1-0.7-1.1
		C1475,190.4,1475.3,190.1,1475.6,189.7z"/>
	<path fill="#8DB23F" d="M342.7,247.1c5.6-1.9,11.7-2,16.9-5.3c1.8-1.6,3.8-3,6-3.9c2-1.3,3.3-3.1,4.6-5.2c4.3-7.1,5.5-15,5.9-23
		c1.1-18,1.4-36.1-4.6-53.4c-6.7-19.1-20.5-30.7-40.5-34.4c-16.5-3.1-33.2-2.5-49.8-2.8c-20.8-0.3-41.6,0.3-62.5,0.3
		c-4.3,0-4.8,1.6-4.8,5.3c0.1,85.6,0,171.3,0,256.9c0,6-0.1,12,0.1,18c0,1.4-1.1,3.6,1.7,3.9c2-1.2,4.2-0.7,6.3-0.8
		c18.6,0,37.1,0,55.7,0c2.1,0,4.3,0.6,6.3-0.9c1.2-2.2,0.7-4.6,0.7-6.9c0.1-34.5-0.1-68.9,0.1-103.4c0.1-0.6,0.4-1.2,0.7-1.8
		c0.9-15.8,1.4-16.2,14.6-16c4.4,0.1,6.8,1.8,8.2,5.7c2.5,6.5,2.5,13.4,2.5,20.2c0,33,0.1,65.9-0.1,98.9c0,3.6,0.8,5,4.7,5
		c18-0.2,36-0.1,54,0c4.4,0,6.1-1.3,6.1-6c0-32.5,0.1-64.9,0.6-97.4c0.2-11.8-2.7-21.9-11.5-30.1c-3-3.2-6.4-5.8-11-6.1
		c-0.3,0-0.6-0.1-0.9-0.3c-1.1-1.2-2.8-1.2-4.2-1.8c-2.6-0.2-4.7-1.5-6.8-2.8c-2.8-1.7-7.3-2.8-6.7-6.9
		C335.4,248.6,339.7,248.1,342.7,247.1z M312.7,218.7c-14.7,27.5-27.3,0-27.3,0v-55.3c15.4-22,27.3,0,27.3,0V218.7z"/>
</g>
<polygon fill="#8DB23F" points="939.5,121.2 1010.6,119.3 1010.6,402.9 939.1,402.9 "/>
<path fill="#8D4826" d="M1400.6,394.5l9.9,8.4c0,0,233.9,26.1,251,22.7l19-5.8c0,0,2.8,6.6-4.2,10.2h-79.3l-115.5-10.1l-64.8-6
	c0,0-10.6-1-13.3-8L1400.6,394.5z"/>
</svg>
